<svg width="611" height="610" viewBox="0 0 611 610" fill="none" xmlns="http://www.w3.org/2000/svg">
<path d="M198.904 65H191.56V48.224H198.088C199.224 48.224 200.2 48.36 201.016 48.632C201.848 48.904 202.472 49.272 202.888 49.736C203.64 50.6 204.016 51.576 204.016 52.664C204.016 53.976 203.592 54.952 202.744 55.592C202.456 55.816 202.256 55.96 202.144 56.024C202.032 56.072 201.832 56.16 201.544 56.288C202.584 56.512 203.408 56.984 204.016 57.704C204.64 58.408 204.952 59.288 204.952 60.344C204.952 61.512 204.552 62.544 203.752 63.44C202.824 64.48 201.208 65 198.904 65ZM195.304 55.016H197.08C198.12 55.016 198.888 54.904 199.384 54.68C199.896 54.456 200.152 53.976 200.152 53.24C200.152 52.488 199.92 51.992 199.456 51.752C198.992 51.512 198.208 51.392 197.104 51.392H195.304V55.016ZM195.304 61.832H197.872C198.944 61.832 199.744 61.704 200.272 61.448C200.816 61.176 201.088 60.656 201.088 59.888C201.088 59.104 200.8 58.592 200.224 58.352C199.664 58.096 198.76 57.968 197.512 57.968H195.304V61.832ZM210.61 58.544C210.61 59.6 210.906 60.464 211.498 61.136C212.106 61.792 212.874 62.12 213.802 62.12C214.746 62.12 215.514 61.792 216.106 61.136C216.714 60.464 217.018 59.6 217.018 58.544C217.018 57.488 216.714 56.624 216.106 55.952C215.514 55.28 214.746 54.944 213.802 54.944C212.874 54.944 212.106 55.28 211.498 55.952C210.906 56.624 210.61 57.488 210.61 58.544ZM220.642 58.544C220.642 60.416 219.994 61.992 218.698 63.272C217.402 64.552 215.77 65.192 213.802 65.192C211.85 65.192 210.226 64.552 208.93 63.272C207.634 61.992 206.986 60.416 206.986 58.544C206.986 56.672 207.634 55.096 208.93 53.816C210.226 52.52 211.85 51.872 213.802 51.872C215.77 51.872 217.402 52.52 218.698 53.816C219.994 55.096 220.642 56.672 220.642 58.544ZM226.296 58.544C226.296 59.6 226.592 60.464 227.184 61.136C227.792 61.792 228.56 62.12 229.488 62.12C230.432 62.12 231.2 61.792 231.792 61.136C232.4 60.464 232.704 59.6 232.704 58.544C232.704 57.488 232.4 56.624 231.792 55.952C231.2 55.28 230.432 54.944 229.488 54.944C228.56 54.944 227.792 55.28 227.184 55.952C226.592 56.624 226.296 57.488 226.296 58.544ZM236.328 58.544C236.328 60.416 235.68 61.992 234.384 63.272C233.088 64.552 231.456 65.192 229.488 65.192C227.536 65.192 225.912 64.552 224.616 63.272C223.32 61.992 222.672 60.416 222.672 58.544C222.672 56.672 223.32 55.096 224.616 53.816C225.912 52.52 227.536 51.872 229.488 51.872C231.456 51.872 233.088 52.52 234.384 53.816C235.68 55.096 236.328 56.672 236.328 58.544ZM242.702 65H239.102V47.192H242.702V56.336L246.71 52.064H251.246L246.326 57.296L251.438 65H247.166L243.878 60.056L242.702 61.28V65ZM272.215 65L270.655 61.376H263.623L262.063 65H258.079L265.327 48.224H268.951L276.199 65H272.215ZM267.151 53.216L265.039 58.088H269.239L267.151 53.216ZM285.398 51.872C286.902 51.872 288.238 52.504 289.406 53.768C290.59 55.016 291.182 56.592 291.182 58.496C291.182 60.4 290.59 61.992 289.406 63.272C288.238 64.552 286.862 65.192 285.278 65.192C283.71 65.192 282.446 64.56 281.486 63.296V69.656H277.886V52.088H281.486V53.528C282.59 52.424 283.894 51.872 285.398 51.872ZM281.438 58.568C281.438 59.608 281.726 60.464 282.302 61.136C282.894 61.792 283.606 62.12 284.438 62.12C285.27 62.12 285.998 61.792 286.622 61.136C287.246 60.464 287.558 59.608 287.558 58.568C287.558 57.528 287.254 56.656 286.646 55.952C286.038 55.248 285.31 54.896 284.462 54.896C283.614 54.896 282.894 55.248 282.302 55.952C281.726 56.64 281.438 57.512 281.438 58.568ZM301.482 51.872C302.986 51.872 304.322 52.504 305.49 53.768C306.674 55.016 307.266 56.592 307.266 58.496C307.266 60.4 306.674 61.992 305.49 63.272C304.322 64.552 302.946 65.192 301.362 65.192C299.794 65.192 298.53 64.56 297.57 63.296V69.656H293.97V52.088H297.57V53.528C298.674 52.424 299.978 51.872 301.482 51.872ZM297.522 58.568C297.522 59.608 297.81 60.464 298.386 61.136C298.978 61.792 299.69 62.12 300.522 62.12C301.354 62.12 302.082 61.792 302.706 61.136C303.33 60.464 303.642 59.608 303.642 58.568C303.642 57.528 303.338 56.656 302.73 55.952C302.122 55.248 301.394 54.896 300.546 54.896C299.698 54.896 298.978 55.248 298.386 55.952C297.81 56.64 297.522 57.512 297.522 58.568ZM312.935 58.544C312.935 59.6 313.231 60.464 313.823 61.136C314.431 61.792 315.199 62.12 316.127 62.12C317.071 62.12 317.839 61.792 318.431 61.136C319.039 60.464 319.343 59.6 319.343 58.544C319.343 57.488 319.039 56.624 318.431 55.952C317.839 55.28 317.071 54.944 316.127 54.944C315.199 54.944 314.431 55.28 313.823 55.952C313.231 56.624 312.935 57.488 312.935 58.544ZM322.967 58.544C322.967 60.416 322.319 61.992 321.023 63.272C319.727 64.552 318.095 65.192 316.127 65.192C314.175 65.192 312.551 64.552 311.255 63.272C309.959 61.992 309.311 60.416 309.311 58.544C309.311 56.672 309.959 55.096 311.255 53.816C312.551 52.52 314.175 51.872 316.127 51.872C318.095 51.872 319.727 52.52 321.023 53.816C322.319 55.096 322.967 56.672 322.967 58.544ZM329.341 65H325.741V52.088H329.341V65ZM326.029 50.456C325.629 50.04 325.429 49.536 325.429 48.944C325.429 48.352 325.629 47.856 326.029 47.456C326.445 47.04 326.949 46.832 327.541 46.832C328.133 46.832 328.629 47.04 329.029 47.456C329.445 47.856 329.653 48.352 329.653 48.944C329.653 49.536 329.445 50.04 329.029 50.456C328.629 50.856 328.133 51.056 327.541 51.056C326.949 51.056 326.445 50.856 326.029 50.456ZM336.449 57.8V65H332.849V52.088H336.449V53.528C337.537 52.424 338.761 51.872 340.121 51.872C341.481 51.872 342.617 52.352 343.529 53.312C344.457 54.272 344.921 55.552 344.921 57.152V65H341.321V57.704C341.321 55.72 340.593 54.728 339.137 54.728C338.417 54.728 337.785 54.992 337.241 55.52C336.713 56.032 336.449 56.792 336.449 57.8ZM352.385 54.68V60.464C352.385 60.96 352.513 61.352 352.769 61.64C353.025 61.912 353.329 62.048 353.681 62.048C354.353 62.048 354.921 61.744 355.385 61.136L356.729 63.656C355.609 64.68 354.425 65.192 353.177 65.192C351.945 65.192 350.897 64.784 350.033 63.968C349.185 63.152 348.761 62.04 348.761 60.632V54.68H347.249V52.088H348.761V48.224H352.385V52.088H355.505V54.68H352.385ZM370.615 58.04V65H366.991V57.944C366.991 56.92 366.831 56.168 366.511 55.688C366.207 55.208 365.703 54.968 364.999 54.968C364.311 54.968 363.695 55.232 363.151 55.76C362.623 56.272 362.359 57.032 362.359 58.04V65H358.759V52.088H362.359V53.552C363.351 52.432 364.487 51.872 365.767 51.872C366.583 51.872 367.319 52.112 367.975 52.592C368.647 53.072 369.151 53.656 369.487 54.344C369.983 53.56 370.647 52.952 371.479 52.52C372.327 52.088 373.175 51.872 374.023 51.872C375.543 51.872 376.767 52.328 377.695 53.24C378.623 54.136 379.087 55.44 379.087 57.152V65H375.463V57.944C375.463 55.96 374.735 54.968 373.279 54.968C372.559 54.968 371.935 55.232 371.407 55.76C370.879 56.272 370.615 57.032 370.615 58.04ZM393.645 63.128C392.189 64.504 390.477 65.192 388.509 65.192C386.557 65.192 384.941 64.592 383.661 63.392C382.381 62.176 381.741 60.552 381.741 58.52C381.741 56.488 382.389 54.872 383.685 53.672C384.997 52.472 386.541 51.872 388.317 51.872C390.093 51.872 391.597 52.408 392.829 53.48C394.077 54.552 394.701 56.024 394.701 57.896V59.816H385.293C385.405 60.52 385.773 61.096 386.397 61.544C387.021 61.992 387.725 62.216 388.509 62.216C389.773 62.216 390.813 61.792 391.629 60.944L393.645 63.128ZM391.053 57.248C390.973 56.48 390.685 55.888 390.189 55.472C389.693 55.056 389.085 54.848 388.365 54.848C387.661 54.848 387.013 55.064 386.421 55.496C385.829 55.928 385.485 56.512 385.389 57.248H391.053ZM400.997 57.8V65H397.397V52.088H400.997V53.528C402.085 52.424 403.309 51.872 404.669 51.872C406.029 51.872 407.165 52.352 408.077 53.312C409.005 54.272 409.469 55.552 409.469 57.152V65H405.869V57.704C405.869 55.72 405.141 54.728 403.685 54.728C402.965 54.728 402.333 54.992 401.789 55.52C401.261 56.032 400.997 56.792 400.997 57.8ZM416.934 54.68V60.464C416.934 60.96 417.062 61.352 417.318 61.64C417.574 61.912 417.878 62.048 418.23 62.048C418.902 62.048 419.47 61.744 419.934 61.136L421.278 63.656C420.158 64.68 418.974 65.192 417.726 65.192C416.494 65.192 415.446 64.784 414.582 63.968C413.734 63.152 413.31 62.04 413.31 60.632V54.68H411.798V52.088H413.31V48.224H416.934V52.088H420.054V54.68H416.934Z" fill="#252B42"/>
<g clip-path="url(#clip0_1479_17315)">
<rect x="50.5" y="112" width="510" height="366" rx="1" fill="white"/>
<path d="M58.718 119.2V125.836L53.314 119.2H51.816V129H53.622V122.364L59.026 129H60.524V119.2H58.718ZM66.038 121.44C64.834 121.44 63.672 121.748 62.874 122.364L63.56 123.638C64.12 123.176 64.988 122.896 65.828 122.896C67.074 122.896 67.69 123.498 67.69 124.52V124.632H65.758C63.49 124.632 62.65 125.612 62.65 126.858C62.65 128.16 63.728 129.098 65.436 129.098C66.556 129.098 67.368 128.734 67.788 128.09V129H69.44V124.618C69.44 122.462 68.194 121.44 66.038 121.44ZM65.8 127.824C64.904 127.824 64.372 127.418 64.372 126.788C64.372 126.242 64.694 125.794 65.884 125.794H67.69V126.662C67.396 127.432 66.654 127.824 65.8 127.824ZM81.3219 121.44C80.1319 121.44 79.1239 121.916 78.5219 122.686C78.0039 121.846 77.0939 121.44 76.0019 121.44C74.9799 121.44 74.1119 121.804 73.5519 122.476V121.524H71.8859V129H73.6359V125.206C73.6359 123.722 74.4199 122.966 75.5819 122.966C76.6459 122.966 77.2619 123.61 77.2619 124.94V129H79.0119V125.206C79.0119 123.722 79.8099 122.966 80.9579 122.966C82.0219 122.966 82.6379 123.61 82.6379 124.94V129H84.3879V124.716C84.3879 122.462 83.1279 121.44 81.3219 121.44ZM93.9205 125.304C93.9205 122.966 92.3245 121.44 90.1405 121.44C87.9145 121.44 86.2765 123.036 86.2765 125.262C86.2765 127.488 87.9005 129.098 90.4065 129.098C91.6945 129.098 92.7445 128.678 93.4165 127.88L92.4785 126.802C91.9465 127.348 91.2885 127.614 90.4485 127.614C89.1465 127.614 88.2365 126.914 88.0265 125.822H93.8925C93.9065 125.654 93.9205 125.444 93.9205 125.304ZM90.1405 122.84C91.2885 122.84 92.1145 123.582 92.2545 124.66H88.0125C88.1805 123.568 89.0065 122.84 90.1405 122.84ZM104.323 120.418L103.777 119.452L102.153 120.418L102.167 118.612H101.103L101.117 120.404L99.5067 119.452L98.9467 120.418L100.557 121.3L98.9467 122.182L99.5067 123.134L101.117 122.196L101.103 123.988H102.167L102.153 122.182L103.777 123.134L104.323 122.182L102.727 121.3L104.323 120.418Z" fill="#252B42"/>
<g clip-path="url(#clip1_1479_17315)">
<rect x="53" y="146.5" width="506" height="49" rx="4.5" fill="#F9F9F9"/>
<rect x="53" y="146.5" width="506" height="49" rx="4.5" stroke="#E6E6E6"/>
<path d="M76.51 167.754V170.442H80.85V171.968H76.51V176H74.858V166.214H81.382L81.368 167.754H76.51ZM88.3272 172.584V168.552H89.8952V176H88.3272V174.642C88.0752 175.099 87.7252 175.459 87.2772 175.72C86.8385 175.981 86.3625 176.112 85.8492 176.112C85.0092 176.112 84.3278 175.855 83.8052 175.342C83.2918 174.829 83.0352 174.087 83.0352 173.116V168.552H84.6032V172.64C84.6032 174.012 85.1725 174.698 86.3112 174.698C86.8525 174.698 87.3238 174.521 87.7252 174.166C88.1265 173.802 88.3272 173.275 88.3272 172.584ZM93.9379 176H92.3699V165.612H93.9379V176ZM97.9797 176H96.4117V165.612H97.9797V176ZM112.055 166.214H113.707V176H111.915L106.371 168.86V176H104.719V166.214H106.371L112.055 173.522V166.214ZM122.432 176H121.004V175.006C120.388 175.743 119.562 176.112 118.526 176.112C117.752 176.112 117.108 175.893 116.594 175.454C116.09 175.015 115.838 174.432 115.838 173.704C115.838 172.967 116.109 172.416 116.65 172.052C117.192 171.688 117.924 171.506 118.848 171.506H120.878V171.226C120.878 170.237 120.328 169.742 119.226 169.742C118.536 169.742 117.817 169.994 117.07 170.498L116.37 169.518C117.276 168.799 118.302 168.44 119.45 168.44C120.328 168.44 121.042 168.664 121.592 169.112C122.152 169.551 122.432 170.246 122.432 171.198V176ZM120.864 173.228V172.598H119.1C117.971 172.598 117.406 172.953 117.406 173.662C117.406 174.026 117.546 174.306 117.826 174.502C118.106 174.689 118.494 174.782 118.988 174.782C119.492 174.782 119.931 174.642 120.304 174.362C120.678 174.082 120.864 173.704 120.864 173.228ZM126.383 171.968V176H124.815V168.552H126.383V169.91C126.607 169.453 126.943 169.093 127.391 168.832C127.849 168.571 128.339 168.44 128.861 168.44C130.037 168.44 130.835 168.925 131.255 169.896C131.993 168.925 132.912 168.44 134.013 168.44C134.853 168.44 135.53 168.697 136.043 169.21C136.566 169.723 136.827 170.465 136.827 171.436V176H135.259V171.912C135.259 170.54 134.69 169.854 133.551 169.854C133.019 169.854 132.553 170.027 132.151 170.372C131.759 170.708 131.554 171.203 131.535 171.856V176H129.967V171.912C129.967 171.203 129.841 170.685 129.589 170.358C129.337 170.022 128.941 169.854 128.399 169.854C127.858 169.854 127.387 170.036 126.985 170.4C126.584 170.755 126.383 171.277 126.383 171.968ZM146.137 172.962H140.299C140.336 173.503 140.583 173.942 141.041 174.278C141.498 174.605 142.021 174.768 142.609 174.768C143.542 174.768 144.251 174.474 144.737 173.886L145.633 174.866C144.83 175.697 143.785 176.112 142.497 176.112C141.451 176.112 140.56 175.767 139.823 175.076C139.095 174.376 138.731 173.443 138.731 172.276C138.731 171.1 139.104 170.167 139.851 169.476C140.597 168.785 141.475 168.44 142.483 168.44C143.5 168.44 144.363 168.748 145.073 169.364C145.782 169.971 146.137 170.811 146.137 171.884V172.962ZM140.299 171.73H144.569C144.569 171.105 144.373 170.624 143.981 170.288C143.589 169.952 143.103 169.784 142.525 169.784C141.955 169.784 141.442 169.961 140.985 170.316C140.527 170.661 140.299 171.133 140.299 171.73ZM155.687 169.98L154.357 169.084L154.469 170.68H153.517L153.629 169.07L152.299 169.966L151.823 169.154L153.251 168.44L151.823 167.74L152.299 166.914L153.615 167.796L153.517 166.214H154.469L154.371 167.796L155.687 166.928L156.163 167.74L154.721 168.44L156.163 169.154L155.687 169.98Z" fill="#737373"/>
</g>
<path d="M53.636 221.474V218.772H58.368V217.274H53.636V214.726H58.97V213.2H51.816V223H59.166V221.474H53.636ZM70.6629 215.44C69.4729 215.44 68.4649 215.916 67.8629 216.686C67.3449 215.846 66.4349 215.44 65.3429 215.44C64.3209 215.44 63.4529 215.804 62.8929 216.476V215.524H61.2269V223H62.9769V219.206C62.9769 217.722 63.7609 216.966 64.9229 216.966C65.9869 216.966 66.6029 217.61 66.6029 218.94V223H68.3529V219.206C68.3529 217.722 69.1509 216.966 70.2989 216.966C71.3629 216.966 71.9789 217.61 71.9789 218.94V223H73.7289V218.716C73.7289 216.462 72.4689 215.44 70.6629 215.44ZM79.0212 215.44C77.8172 215.44 76.6552 215.748 75.8572 216.364L76.5432 217.638C77.1032 217.176 77.9712 216.896 78.8112 216.896C80.0572 216.896 80.6732 217.498 80.6732 218.52V218.632H78.7412C76.4732 218.632 75.6332 219.612 75.6332 220.858C75.6332 222.16 76.7112 223.098 78.4192 223.098C79.5392 223.098 80.3512 222.734 80.7712 222.09V223H82.4232V218.618C82.4232 216.462 81.1772 215.44 79.0212 215.44ZM78.7832 221.824C77.8872 221.824 77.3552 221.418 77.3552 220.788C77.3552 220.242 77.6772 219.794 78.8672 219.794H80.6732V220.662C80.3792 221.432 79.6372 221.824 78.7832 221.824ZM85.7511 214.292C86.4091 214.292 86.8711 213.816 86.8711 213.2C86.8711 212.626 86.3951 212.192 85.7511 212.192C85.1071 212.192 84.6311 212.654 84.6311 213.242C84.6311 213.83 85.1071 214.292 85.7511 214.292ZM84.8691 223H86.6191V215.524H84.8691V223ZM89.116 223H90.866V212.612H89.116V223ZM100.288 215.44C99.084 215.44 97.922 215.748 97.124 216.364L97.81 217.638C98.37 217.176 99.238 216.896 100.078 216.896C101.324 216.896 101.94 217.498 101.94 218.52V218.632H100.008C97.74 218.632 96.9 219.612 96.9 220.858C96.9 222.16 97.978 223.098 99.686 223.098C100.806 223.098 101.618 222.734 102.038 222.09V223H103.69V218.618C103.69 216.462 102.444 215.44 100.288 215.44ZM100.05 221.824C99.154 221.824 98.622 221.418 98.622 220.788C98.622 220.242 98.944 219.794 100.134 219.794H101.94V220.662C101.646 221.432 100.904 221.824 100.05 221.824ZM111.776 212.612V216.448C111.188 215.762 110.334 215.44 109.368 215.44C107.198 215.44 105.588 216.938 105.588 219.262C105.588 221.586 107.198 223.098 109.368 223.098C110.39 223.098 111.258 222.748 111.846 222.034V223H113.526V212.612H111.776ZM109.578 221.6C108.318 221.6 107.352 220.69 107.352 219.262C107.352 217.834 108.318 216.924 109.578 216.924C110.838 216.924 111.804 217.834 111.804 219.262C111.804 220.69 110.838 221.6 109.578 221.6ZM121.588 212.612V216.448C121 215.762 120.146 215.44 119.18 215.44C117.01 215.44 115.4 216.938 115.4 219.262C115.4 221.586 117.01 223.098 119.18 223.098C120.202 223.098 121.07 222.748 121.658 222.034V223H123.338V212.612H121.588ZM119.39 221.6C118.13 221.6 117.164 220.69 117.164 219.262C117.164 217.834 118.13 216.924 119.39 216.924C120.65 216.924 121.616 217.834 121.616 219.262C121.616 220.69 120.65 221.6 119.39 221.6ZM127.493 216.616V215.524H125.827V223H127.577V219.374C127.577 217.848 128.417 217.064 129.747 217.064C129.873 217.064 129.999 217.078 130.153 217.106V215.44C128.907 215.44 127.997 215.832 127.493 216.616ZM138.797 219.304C138.797 216.966 137.201 215.44 135.017 215.44C132.791 215.44 131.153 217.036 131.153 219.262C131.153 221.488 132.777 223.098 135.283 223.098C136.571 223.098 137.621 222.678 138.293 221.88L137.355 220.802C136.823 221.348 136.165 221.614 135.325 221.614C134.023 221.614 133.113 220.914 132.903 219.822H138.769C138.783 219.654 138.797 219.444 138.797 219.304ZM135.017 216.84C136.165 216.84 136.991 217.582 137.131 218.66H132.889C133.057 217.568 133.883 216.84 135.017 216.84ZM142.988 223.098C145.088 223.098 146.376 222.188 146.376 220.788C146.376 217.862 141.756 219.206 141.756 217.694C141.756 217.204 142.26 216.854 143.324 216.854C144.038 216.854 144.752 216.994 145.466 217.414L146.138 216.084C145.466 215.678 144.332 215.44 143.338 215.44C141.322 215.44 140.048 216.364 140.048 217.778C140.048 220.76 144.668 219.416 144.668 220.844C144.668 221.362 144.206 221.67 143.1 221.67C142.162 221.67 141.154 221.362 140.496 220.928L139.824 222.258C140.496 222.734 141.742 223.098 142.988 223.098ZM150.393 223.098C152.493 223.098 153.781 222.188 153.781 220.788C153.781 217.862 149.161 219.206 149.161 217.694C149.161 217.204 149.665 216.854 150.729 216.854C151.443 216.854 152.157 216.994 152.871 217.414L153.543 216.084C152.871 215.678 151.737 215.44 150.743 215.44C148.727 215.44 147.453 216.364 147.453 217.778C147.453 220.76 152.073 219.416 152.073 220.844C152.073 221.362 151.611 221.67 150.505 221.67C149.567 221.67 148.559 221.362 147.901 220.928L147.229 222.258C147.901 222.734 149.147 223.098 150.393 223.098ZM164.009 214.418L163.463 213.452L161.839 214.418L161.853 212.612H160.789L160.803 214.404L159.193 213.452L158.633 214.418L160.243 215.3L158.633 216.182L159.193 217.134L160.803 216.196L160.789 217.988H161.853L161.839 216.182L163.463 217.134L164.009 216.182L162.413 215.3L164.009 214.418Z" fill="#252B42"/>
<g clip-path="url(#clip2_1479_17315)">
<rect x="53" y="240.5" width="507" height="49" rx="4.5" fill="#F9F9F9"/>
<rect x="53" y="240.5" width="507" height="49" rx="4.5" stroke="#E6E6E6"/>
<path d="M81.564 266.962H75.726C75.7633 267.503 76.0107 267.942 76.468 268.278C76.9253 268.605 77.448 268.768 78.036 268.768C78.9693 268.768 79.6787 268.474 80.164 267.886L81.06 268.866C80.2573 269.697 79.212 270.112 77.924 270.112C76.8787 270.112 75.9873 269.767 75.25 269.076C74.522 268.376 74.158 267.443 74.158 266.276C74.158 265.1 74.5313 264.167 75.278 263.476C76.0247 262.785 76.902 262.44 77.91 262.44C78.9273 262.44 79.7907 262.748 80.5 263.364C81.2093 263.971 81.564 264.811 81.564 265.884V266.962ZM75.726 265.73H79.996C79.996 265.105 79.8 264.624 79.408 264.288C79.016 263.952 78.5307 263.784 77.952 263.784C77.3827 263.784 76.8693 263.961 76.412 264.316C75.9547 264.661 75.726 265.133 75.726 265.73ZM84.5279 262.552L86.1239 265.002L87.7759 262.552H89.6379L87.0339 266.192L89.7499 270H87.8179L86.0399 267.522L84.3039 270H82.4699L85.1159 266.206L82.6099 262.552H84.5279ZM97.3102 270H95.8822V269.006C95.2662 269.743 94.4402 270.112 93.4042 270.112C92.6295 270.112 91.9855 269.893 91.4722 269.454C90.9682 269.015 90.7162 268.432 90.7162 267.704C90.7162 266.967 90.9869 266.416 91.5282 266.052C92.0695 265.688 92.8022 265.506 93.7262 265.506H95.7562V265.226C95.7562 264.237 95.2055 263.742 94.1042 263.742C93.4135 263.742 92.6949 263.994 91.9482 264.498L91.2482 263.518C92.1535 262.799 93.1802 262.44 94.3282 262.44C95.2055 262.44 95.9195 262.664 96.4702 263.112C97.0302 263.551 97.3102 264.246 97.3102 265.198V270ZM95.7422 267.228V266.598H93.9782C92.8489 266.598 92.2842 266.953 92.2842 267.662C92.2842 268.026 92.4242 268.306 92.7042 268.502C92.9842 268.689 93.3715 268.782 93.8662 268.782C94.3702 268.782 94.8089 268.642 95.1822 268.362C95.5555 268.082 95.7422 267.704 95.7422 267.228ZM101.261 265.968V270H99.693V262.552H101.261V263.91C101.485 263.453 101.821 263.093 102.269 262.832C102.726 262.571 103.216 262.44 103.739 262.44C104.915 262.44 105.713 262.925 106.133 263.896C106.87 262.925 107.79 262.44 108.891 262.44C109.731 262.44 110.408 262.697 110.921 263.21C111.444 263.723 111.705 264.465 111.705 265.436V270H110.137V265.912C110.137 264.54 109.568 263.854 108.429 263.854C107.897 263.854 107.43 264.027 107.029 264.372C106.637 264.708 106.432 265.203 106.413 265.856V270H104.845V265.912C104.845 265.203 104.719 264.685 104.467 264.358C104.215 264.022 103.818 263.854 103.277 263.854C102.736 263.854 102.264 264.036 101.863 264.4C101.462 264.755 101.261 265.277 101.261 265.968ZM118.074 262.44C119.073 262.44 119.927 262.785 120.636 263.476C121.346 264.167 121.7 265.086 121.7 266.234C121.7 267.382 121.346 268.315 120.636 269.034C119.936 269.753 119.115 270.112 118.172 270.112C117.239 270.112 116.399 269.701 115.652 268.88V272.716H114.084V262.552H115.652V263.854C116.268 262.911 117.076 262.44 118.074 262.44ZM115.624 266.29C115.624 266.999 115.839 267.583 116.268 268.04C116.698 268.488 117.22 268.712 117.836 268.712C118.452 268.712 118.989 268.488 119.446 268.04C119.904 267.592 120.132 267.013 120.132 266.304C120.132 265.585 119.908 264.993 119.46 264.526C119.012 264.05 118.476 263.812 117.85 263.812C117.225 263.812 116.698 264.05 116.268 264.526C115.839 264.993 115.624 265.581 115.624 266.29ZM125.259 270H123.691V259.612H125.259V270ZM134.662 266.962H128.824C128.862 267.503 129.109 267.942 129.566 268.278C130.024 268.605 130.546 268.768 131.134 268.768C132.068 268.768 132.777 268.474 133.262 267.886L134.158 268.866C133.356 269.697 132.31 270.112 131.022 270.112C129.977 270.112 129.086 269.767 128.348 269.076C127.62 268.376 127.256 267.443 127.256 266.276C127.256 265.1 127.63 264.167 128.376 263.476C129.123 262.785 130 262.44 131.008 262.44C132.026 262.44 132.889 262.748 133.598 263.364C134.308 263.971 134.662 264.811 134.662 265.884V266.962ZM128.824 265.73H133.094C133.094 265.105 132.898 264.624 132.506 264.288C132.114 263.952 131.629 263.784 131.05 263.784C130.481 263.784 129.968 263.961 129.51 264.316C129.053 264.661 128.824 265.133 128.824 265.73ZM141.697 271.764C140.129 271.764 138.813 271.241 137.749 270.196C136.694 269.151 136.167 267.844 136.167 266.276C136.167 264.708 136.722 263.369 137.833 262.258C138.943 261.138 140.283 260.578 141.851 260.578C143.428 260.578 144.753 261.138 145.827 262.258C146.909 263.369 147.451 264.727 147.451 266.332C147.451 267.34 147.259 268.157 146.877 268.782C146.494 269.398 145.985 269.706 145.351 269.706C144.893 269.706 144.529 269.552 144.259 269.244C143.988 268.927 143.843 268.479 143.825 267.9C143.302 269.104 142.467 269.706 141.319 269.706C140.516 269.706 139.807 269.384 139.191 268.74C138.584 268.096 138.281 267.279 138.281 266.29C138.281 265.301 138.57 264.47 139.149 263.798C139.727 263.126 140.493 262.79 141.445 262.79C141.874 262.79 142.28 262.902 142.663 263.126C143.045 263.35 143.321 263.616 143.489 263.924V262.986H144.833V267.872C144.833 268.525 145.089 268.852 145.603 268.852C145.892 268.852 146.153 268.642 146.387 268.222C146.629 267.793 146.751 267.233 146.751 266.542C146.751 265.049 146.298 263.784 145.393 262.748C144.497 261.712 143.335 261.194 141.907 261.194C140.488 261.194 139.279 261.693 138.281 262.692C137.282 263.691 136.783 264.885 136.783 266.276C136.783 267.667 137.254 268.829 138.197 269.762C139.139 270.686 140.306 271.148 141.697 271.148C142.817 271.148 143.675 270.868 144.273 270.308L144.581 270.826C144.254 271.106 143.82 271.33 143.279 271.498C142.737 271.675 142.21 271.764 141.697 271.764ZM143.503 266.234C143.503 265.627 143.325 265.128 142.971 264.736C142.616 264.344 142.154 264.148 141.585 264.148C141.015 264.148 140.558 264.349 140.213 264.75C139.867 265.151 139.695 265.646 139.695 266.234C139.695 266.813 139.863 267.321 140.199 267.76C140.544 268.189 141.011 268.404 141.599 268.404C142.187 268.404 142.649 268.194 142.985 267.774C143.33 267.345 143.503 266.831 143.503 266.234ZM156.335 262.552V269.048C156.335 270.364 155.976 271.349 155.257 272.002C154.548 272.665 153.633 272.996 152.513 272.996C151.393 272.996 150.38 272.646 149.475 271.946L150.217 270.756C150.945 271.307 151.678 271.582 152.415 271.582C153.162 271.582 153.75 271.391 154.179 271.008C154.618 270.625 154.837 270.014 154.837 269.174V268.222C154.604 268.661 154.268 269.011 153.829 269.272C153.4 269.533 152.914 269.664 152.373 269.664C151.384 269.664 150.572 269.319 149.937 268.628C149.302 267.937 148.985 267.079 148.985 266.052C148.985 265.025 149.302 264.167 149.937 263.476C150.572 262.785 151.379 262.44 152.359 262.44C153.348 262.44 154.151 262.846 154.767 263.658V262.552H156.335ZM150.525 265.996C150.525 266.603 150.712 267.13 151.085 267.578C151.468 268.017 151.976 268.236 152.611 268.236C153.255 268.236 153.773 268.021 154.165 267.592C154.566 267.163 154.767 266.631 154.767 265.996C154.767 265.352 154.566 264.811 154.165 264.372C153.764 263.924 153.246 263.7 152.611 263.7C151.976 263.7 151.468 263.929 151.085 264.386C150.712 264.843 150.525 265.38 150.525 265.996ZM160.375 265.968V270H158.807V262.552H160.375V263.91C160.599 263.453 160.935 263.093 161.383 262.832C161.84 262.571 162.33 262.44 162.853 262.44C164.029 262.44 164.827 262.925 165.247 263.896C165.984 262.925 166.904 262.44 168.005 262.44C168.845 262.44 169.522 262.697 170.035 263.21C170.558 263.723 170.819 264.465 170.819 265.436V270H169.251V265.912C169.251 264.54 168.682 263.854 167.543 263.854C167.011 263.854 166.544 264.027 166.143 264.372C165.751 264.708 165.546 265.203 165.527 265.856V270H163.959V265.912C163.959 265.203 163.833 264.685 163.581 264.358C163.329 264.022 162.932 263.854 162.391 263.854C161.85 263.854 161.378 264.036 160.977 264.4C160.576 264.755 160.375 265.277 160.375 265.968ZM179.232 270H177.804V269.006C177.188 269.743 176.362 270.112 175.326 270.112C174.552 270.112 173.908 269.893 173.394 269.454C172.89 269.015 172.638 268.432 172.638 267.704C172.638 266.967 172.909 266.416 173.45 266.052C173.992 265.688 174.724 265.506 175.648 265.506H177.678V265.226C177.678 264.237 177.128 263.742 176.026 263.742C175.336 263.742 174.617 263.994 173.87 264.498L173.17 263.518C174.076 262.799 175.102 262.44 176.25 262.44C177.128 262.44 177.842 262.664 178.392 263.112C178.952 263.551 179.232 264.246 179.232 265.198V270ZM177.664 267.228V266.598H175.9C174.771 266.598 174.206 266.953 174.206 267.662C174.206 268.026 174.346 268.306 174.626 268.502C174.906 268.689 175.294 268.782 175.788 268.782C176.292 268.782 176.731 268.642 177.104 268.362C177.478 268.082 177.664 267.704 177.664 267.228ZM183.183 270H181.615V262.552H183.183V270ZM181.713 261.068C181.517 260.872 181.419 260.639 181.419 260.368C181.419 260.097 181.517 259.864 181.713 259.668C181.909 259.472 182.143 259.374 182.413 259.374C182.684 259.374 182.917 259.472 183.113 259.668C183.309 259.864 183.407 260.097 183.407 260.368C183.407 260.639 183.309 260.872 183.113 261.068C182.917 261.264 182.684 261.362 182.413 261.362C182.143 261.362 181.909 261.264 181.713 261.068ZM187.225 270H185.657V259.612H187.225V270ZM189.783 269.804C189.587 269.599 189.489 269.351 189.489 269.062C189.489 268.773 189.587 268.53 189.783 268.334C189.988 268.129 190.236 268.026 190.525 268.026C190.814 268.026 191.062 268.129 191.267 268.334C191.472 268.53 191.575 268.773 191.575 269.062C191.575 269.351 191.472 269.599 191.267 269.804C191.062 270.009 190.814 270.112 190.525 270.112C190.236 270.112 189.988 270.009 189.783 269.804ZM197.127 270.112C196.091 270.112 195.199 269.762 194.453 269.062C193.706 268.353 193.333 267.429 193.333 266.29C193.333 265.151 193.72 264.227 194.495 263.518C195.279 262.799 196.231 262.44 197.351 262.44C198.471 262.44 199.418 262.827 200.193 263.602L199.269 264.736C198.625 264.176 197.976 263.896 197.323 263.896C196.669 263.896 196.1 264.115 195.615 264.554C195.139 264.983 194.901 265.543 194.901 266.234C194.901 266.915 195.139 267.494 195.615 267.97C196.091 268.446 196.674 268.684 197.365 268.684C198.065 268.684 198.723 268.367 199.339 267.732L200.263 268.74C199.357 269.655 198.312 270.112 197.127 270.112ZM203.675 268.04C204.123 268.488 204.687 268.712 205.369 268.712C206.05 268.712 206.61 268.488 207.049 268.04C207.497 267.583 207.721 266.995 207.721 266.276C207.721 265.557 207.497 264.974 207.049 264.526C206.61 264.069 206.05 263.84 205.369 263.84C204.687 263.84 204.123 264.069 203.675 264.526C203.236 264.974 203.017 265.557 203.017 266.276C203.017 266.995 203.236 267.583 203.675 268.04ZM208.169 269.006C207.422 269.743 206.489 270.112 205.369 270.112C204.249 270.112 203.315 269.743 202.569 269.006C201.822 268.259 201.449 267.349 201.449 266.276C201.449 265.203 201.822 264.297 202.569 263.56C203.315 262.813 204.249 262.44 205.369 262.44C206.489 262.44 207.422 262.813 208.169 263.56C208.915 264.297 209.289 265.203 209.289 266.276C209.289 267.349 208.915 268.259 208.169 269.006ZM212.839 265.968V270H211.271V262.552H212.839V263.91C213.063 263.453 213.399 263.093 213.847 262.832C214.305 262.571 214.795 262.44 215.317 262.44C216.493 262.44 217.291 262.925 217.711 263.896C218.449 262.925 219.368 262.44 220.469 262.44C221.309 262.44 221.986 262.697 222.499 263.21C223.022 263.723 223.283 264.465 223.283 265.436V270H221.715V265.912C221.715 264.54 221.146 263.854 220.007 263.854C219.475 263.854 219.009 264.027 218.607 264.372C218.215 264.708 218.01 265.203 217.991 265.856V270H216.423V265.912C216.423 265.203 216.297 264.685 216.045 264.358C215.793 264.022 215.397 263.854 214.855 263.854C214.314 263.854 213.843 264.036 213.441 264.4C213.04 264.755 212.839 265.277 212.839 265.968Z" fill="#737373"/>
</g>
<path d="M51.816 317H56.1C59.278 317 61.448 315.04 61.448 312.1C61.448 309.16 59.278 307.2 56.1 307.2H51.816V317ZM53.636 315.46V308.74H56.016C58.2 308.74 59.614 310.07 59.614 312.1C59.614 314.13 58.2 315.46 56.016 315.46H53.636ZM70.4424 313.304C70.4424 310.966 68.8464 309.44 66.6624 309.44C64.4364 309.44 62.7984 311.036 62.7984 313.262C62.7984 315.488 64.4224 317.098 66.9284 317.098C68.2164 317.098 69.2664 316.678 69.9384 315.88L69.0004 314.802C68.4684 315.348 67.8104 315.614 66.9704 315.614C65.6684 315.614 64.7584 314.914 64.5484 313.822H70.4144C70.4284 313.654 70.4424 313.444 70.4424 313.304ZM66.6624 310.84C67.8104 310.84 68.6364 311.582 68.7764 312.66H64.5344C64.7024 311.568 65.5284 310.84 66.6624 310.84ZM76.4674 309.44C75.4454 309.44 74.5774 309.79 73.9894 310.504V309.524H72.3234V319.716H74.0734V316.09C74.6754 316.776 75.5154 317.098 76.4674 317.098C78.6514 317.098 80.2614 315.586 80.2614 313.262C80.2614 310.952 78.6514 309.44 76.4674 309.44ZM76.2714 315.6C75.0114 315.6 74.0454 314.69 74.0454 313.262C74.0454 311.834 75.0114 310.924 76.2714 310.924C77.5314 310.924 78.4834 311.834 78.4834 313.262C78.4834 314.69 77.5314 315.6 76.2714 315.6ZM84.8813 309.44C83.6773 309.44 82.5153 309.748 81.7173 310.364L82.4033 311.638C82.9633 311.176 83.8313 310.896 84.6713 310.896C85.9173 310.896 86.5333 311.498 86.5333 312.52V312.632H84.6013C82.3333 312.632 81.4933 313.612 81.4933 314.858C81.4933 316.16 82.5713 317.098 84.2793 317.098C85.3993 317.098 86.2113 316.734 86.6313 316.09V317H88.2833V312.618C88.2833 310.462 87.0373 309.44 84.8813 309.44ZM84.6433 315.824C83.7473 315.824 83.2153 315.418 83.2153 314.788C83.2153 314.242 83.5373 313.794 84.7273 313.794H86.5333V314.662C86.2393 315.432 85.4973 315.824 84.6433 315.824ZM92.3952 310.616V309.524H90.7292V317H92.4792V313.374C92.4792 311.848 93.3192 311.064 94.6492 311.064C94.7752 311.064 94.9012 311.078 95.0552 311.106V309.44C93.8092 309.44 92.8992 309.832 92.3952 310.616ZM101.017 315.348C100.751 315.558 100.401 315.656 100.037 315.656C99.3652 315.656 99.0012 315.264 99.0012 314.536V310.98H101.003V309.58H99.0012V307.872H97.2512V309.58H96.0192V310.98H97.2512V314.578C97.2512 316.23 98.1892 317.098 99.8272 317.098C100.457 317.098 101.087 316.93 101.507 316.594L101.017 315.348ZM109.929 313.304C109.929 310.966 108.333 309.44 106.149 309.44C103.923 309.44 102.285 311.036 102.285 313.262C102.285 315.488 103.909 317.098 106.415 317.098C107.703 317.098 108.753 316.678 109.425 315.88L108.487 314.802C107.955 315.348 107.297 315.614 106.457 315.614C105.155 315.614 104.245 314.914 104.035 313.822H109.901C109.915 313.654 109.929 313.444 109.929 313.304ZM106.149 310.84C107.297 310.84 108.123 311.582 108.263 312.66H104.021C104.189 311.568 105.015 310.84 106.149 310.84ZM121.246 309.44C120.056 309.44 119.048 309.916 118.446 310.686C117.928 309.846 117.018 309.44 115.926 309.44C114.904 309.44 114.036 309.804 113.476 310.476V309.524H111.81V317H113.56V313.206C113.56 311.722 114.344 310.966 115.506 310.966C116.57 310.966 117.186 311.61 117.186 312.94V317H118.936V313.206C118.936 311.722 119.734 310.966 120.882 310.966C121.946 310.966 122.562 311.61 122.562 312.94V317H124.312V312.716C124.312 310.462 123.052 309.44 121.246 309.44ZM133.844 313.304C133.844 310.966 132.248 309.44 130.064 309.44C127.838 309.44 126.2 311.036 126.2 313.262C126.2 315.488 127.824 317.098 130.33 317.098C131.618 317.098 132.668 316.678 133.34 315.88L132.402 314.802C131.87 315.348 131.212 315.614 130.372 315.614C129.07 315.614 128.16 314.914 127.95 313.822H133.816C133.83 313.654 133.844 313.444 133.844 313.304ZM130.064 310.84C131.212 310.84 132.038 311.582 132.178 312.66H127.936C128.104 311.568 128.93 310.84 130.064 310.84ZM139.967 309.44C138.875 309.44 137.965 309.804 137.391 310.49V309.524H135.725V317H137.475V313.22C137.475 311.722 138.315 310.966 139.561 310.966C140.681 310.966 141.339 311.61 141.339 312.94V317H143.089V312.716C143.089 310.462 141.759 309.44 139.967 309.44ZM149.513 315.348C149.247 315.558 148.897 315.656 148.533 315.656C147.861 315.656 147.497 315.264 147.497 314.536V310.98H149.499V309.58H147.497V307.872H145.747V309.58H144.515V310.98H145.747V314.578C145.747 316.23 146.685 317.098 148.323 317.098C148.953 317.098 149.583 316.93 150.003 316.594L149.513 315.348ZM160.164 308.418L159.618 307.452L157.994 308.418L158.008 306.612H156.944L156.958 308.404L155.348 307.452L154.788 308.418L156.398 309.3L154.788 310.182L155.348 311.134L156.958 310.196L156.944 311.988H158.008L157.994 310.182L159.618 311.134L160.164 310.182L158.568 309.3L160.164 308.418Z" fill="#252B42"/>
<g clip-path="url(#clip3_1479_17315)">
<g clip-path="url(#clip4_1479_17315)">
<rect x="51" y="334.5" width="509" height="49" rx="4.5" fill="#F9F9F9"/>
<rect x="51" y="334.5" width="509" height="49" rx="4.5" stroke="#DDDDDD"/>
<path d="M73.764 354.2H70.096V364H71.132V360.906H73.764C76.256 360.906 77.768 359.646 77.768 357.56C77.768 355.46 76.256 354.2 73.764 354.2ZM73.736 359.996H71.132V355.096H73.736C75.696 355.096 76.732 355.992 76.732 357.56C76.732 359.1 75.696 359.996 73.736 359.996ZM80.1348 364H81.1288V353.612H80.1348V364ZM90.5206 360.318C90.5206 358.106 89.0226 356.58 86.9506 356.58C84.8786 356.58 83.3526 358.134 83.3526 360.318C83.3526 362.502 84.9206 364.07 87.2166 364.07C88.3786 364.07 89.4006 363.65 90.0586 362.866L89.4986 362.222C88.9386 362.866 88.1406 363.188 87.2446 363.188C85.6346 363.188 84.4586 362.166 84.3466 360.626H90.5066C90.5066 360.514 90.5206 360.402 90.5206 360.318ZM86.9506 357.434C88.3926 357.434 89.4426 358.442 89.5686 359.884H84.3466C84.4726 358.442 85.5226 357.434 86.9506 357.434ZM95.1147 356.58C93.9527 356.58 92.8607 356.944 92.1187 357.574L92.5667 358.316C93.1687 357.784 94.0647 357.448 95.0167 357.448C96.3887 357.448 97.1027 358.134 97.1027 359.394V359.842H94.7647C92.6507 359.842 91.9227 360.794 91.9227 361.928C91.9227 363.202 92.9447 364.07 94.6107 364.07C95.8287 364.07 96.6967 363.608 97.1447 362.852V364H98.0967V359.436C98.0967 357.532 97.0187 356.58 95.1147 356.58ZM94.7647 363.286C93.5887 363.286 92.9027 362.754 92.9027 361.9C92.9027 361.144 93.3647 360.584 94.7927 360.584H97.1027V361.788C96.7107 362.754 95.8847 363.286 94.7647 363.286ZM102.971 364.07C104.889 364.07 106.009 363.244 106.009 361.97C106.009 359.142 101.235 360.64 101.235 358.652C101.235 357.952 101.823 357.434 103.153 357.434C103.909 357.434 104.679 357.616 105.323 358.064L105.757 357.266C105.141 356.846 104.105 356.58 103.153 356.58C101.277 356.58 100.241 357.476 100.241 358.68C100.241 361.592 105.015 360.08 105.015 361.998C105.015 362.726 104.441 363.202 103.041 363.202C102.005 363.202 101.011 362.838 100.423 362.376L99.9745 363.16C100.577 363.678 101.753 364.07 102.971 364.07ZM114.472 360.318C114.472 358.106 112.974 356.58 110.902 356.58C108.83 356.58 107.304 358.134 107.304 360.318C107.304 362.502 108.872 364.07 111.168 364.07C112.33 364.07 113.352 363.65 114.01 362.866L113.45 362.222C112.89 362.866 112.092 363.188 111.196 363.188C109.586 363.188 108.41 362.166 108.298 360.626H114.458C114.458 360.514 114.472 360.402 114.472 360.318ZM110.902 357.434C112.344 357.434 113.394 358.442 113.52 359.884H108.298C108.424 358.442 109.474 357.434 110.902 357.434ZM123.471 364.084C125.977 364.084 127.125 362.852 127.125 361.41C127.125 357.84 121.091 359.464 121.091 356.776C121.091 355.796 121.889 354.998 123.681 354.998C124.549 354.998 125.529 355.264 126.369 355.81L126.719 354.984C125.935 354.438 124.787 354.116 123.681 354.116C121.189 354.116 120.069 355.362 120.069 356.804C120.069 360.43 126.103 358.778 126.103 361.466C126.103 362.432 125.305 363.202 123.471 363.202C122.183 363.202 120.937 362.698 120.237 362.012L119.831 362.81C120.559 363.566 122.001 364.084 123.471 364.084ZM135.799 360.318C135.799 358.106 134.301 356.58 132.229 356.58C130.157 356.58 128.631 358.134 128.631 360.318C128.631 362.502 130.199 364.07 132.495 364.07C133.657 364.07 134.679 363.65 135.337 362.866L134.777 362.222C134.217 362.866 133.419 363.188 132.523 363.188C130.913 363.188 129.737 362.166 129.625 360.626H135.785C135.785 360.514 135.799 360.402 135.799 360.318ZM132.229 357.434C133.671 357.434 134.721 358.442 134.847 359.884H129.625C129.751 358.442 130.801 357.434 132.229 357.434ZM138.022 364H139.016V353.612H138.022V364ZM148.408 360.318C148.408 358.106 146.91 356.58 144.838 356.58C142.766 356.58 141.24 358.134 141.24 360.318C141.24 362.502 142.808 364.07 145.104 364.07C146.266 364.07 147.288 363.65 147.946 362.866L147.386 362.222C146.826 362.866 146.028 363.188 145.132 363.188C143.522 363.188 142.346 362.166 142.234 360.626H148.394C148.394 360.514 148.408 360.402 148.408 360.318ZM144.838 357.434C146.28 357.434 147.33 358.442 147.456 359.884H142.234C142.36 358.442 143.41 357.434 144.838 357.434ZM153.683 364.07C154.929 364.07 155.979 363.566 156.567 362.614L155.825 362.11C155.321 362.852 154.537 363.188 153.683 363.188C152.073 363.188 150.897 362.054 150.897 360.318C150.897 358.596 152.073 357.448 153.683 357.448C154.537 357.448 155.321 357.798 155.825 358.54L156.567 358.036C155.979 357.07 154.929 356.58 153.683 356.58C151.485 356.58 149.889 358.12 149.889 360.318C149.889 362.516 151.485 364.07 153.683 364.07ZM162.33 362.838C162.05 363.09 161.644 363.216 161.238 363.216C160.412 363.216 159.964 362.74 159.964 361.872V357.476H162.204V356.636H159.964V355.026H158.97V356.636H157.654V357.476H158.97V361.928C158.97 363.286 159.74 364.07 161.126 364.07C161.7 364.07 162.288 363.902 162.68 363.552L162.33 362.838Z" fill="#737373"/>
<path d="M519.492 355L524.492 360L529.492 355L531.492 356L524.492 363L517.492 356L519.492 355Z" fill="#737373"/>
</g>
</g>
<path d="M53.804 411H55.624V402.74H58.872V401.2H50.556V402.74H53.804V411ZM60.9741 402.292C61.6321 402.292 62.0941 401.816 62.0941 401.2C62.0941 400.626 61.6181 400.192 60.9741 400.192C60.3301 400.192 59.8541 400.654 59.8541 401.242C59.8541 401.83 60.3301 402.292 60.9741 402.292ZM60.0921 411H61.8421V403.524H60.0921V411ZM73.775 403.44C72.585 403.44 71.577 403.916 70.975 404.686C70.457 403.846 69.547 403.44 68.455 403.44C67.433 403.44 66.565 403.804 66.005 404.476V403.524H64.339V411H66.089V407.206C66.089 405.722 66.873 404.966 68.035 404.966C69.099 404.966 69.715 405.61 69.715 406.94V411H71.465V407.206C71.465 405.722 72.263 404.966 73.411 404.966C74.475 404.966 75.091 405.61 75.091 406.94V411H76.841V406.716C76.841 404.462 75.581 403.44 73.775 403.44ZM86.3737 407.304C86.3737 404.966 84.7777 403.44 82.5937 403.44C80.3677 403.44 78.7297 405.036 78.7297 407.262C78.7297 409.488 80.3537 411.098 82.8597 411.098C84.1477 411.098 85.1977 410.678 85.8697 409.88L84.9317 408.802C84.3997 409.348 83.7417 409.614 82.9017 409.614C81.5997 409.614 80.6897 408.914 80.4797 407.822H86.3457C86.3597 407.654 86.3737 407.444 86.3737 407.304ZM82.5937 404.84C83.7417 404.84 84.5677 405.582 84.7077 406.66H80.4657C80.6337 405.568 81.4597 404.84 82.5937 404.84ZM96.7758 402.418L96.2298 401.452L94.6058 402.418L94.6198 400.612H93.5558L93.5698 402.404L91.9598 401.452L91.3998 402.418L93.0098 403.3L91.3998 404.182L91.9598 405.134L93.5698 404.196L93.5558 405.988H94.6198L94.6058 404.182L96.2298 405.134L96.7758 404.182L95.1798 403.3L96.7758 402.418Z" fill="#252B42"/>
<g clip-path="url(#clip5_1479_17315)">
<g clip-path="url(#clip6_1479_17315)">
<rect x="51" y="428.5" width="509" height="49" rx="4.5" fill="#F9F9F9"/>
<rect x="51" y="428.5" width="509" height="49" rx="4.5" stroke="#DDDDDD"/>
<path d="M77.558 454.528H75.598V452.26H74.618V454.528H70.362L75.374 448.2H74.254L69.06 454.696V455.424H74.59V458H75.598V455.424H77.558V454.528ZM79.5219 452.106C79.9279 452.106 80.2779 451.77 80.2779 451.336C80.2779 450.902 79.9279 450.58 79.5219 450.58C79.1159 450.58 78.7799 450.902 78.7799 451.336C78.7799 451.77 79.1159 452.106 79.5219 452.106ZM79.5219 458.07C79.9279 458.07 80.2779 457.734 80.2779 457.3C80.2779 456.866 79.9279 456.544 79.5219 456.544C79.1159 456.544 78.7799 456.866 78.7799 457.3C78.7799 457.734 79.1159 458.07 79.5219 458.07ZM85.8387 458.084C88.1067 458.084 89.7587 456.222 89.7587 453.1C89.7587 449.978 88.1067 448.116 85.8387 448.116C83.5707 448.116 81.9327 449.978 81.9327 453.1C81.9327 456.222 83.5707 458.084 85.8387 458.084ZM85.8387 457.16C84.1307 457.16 82.9547 455.718 82.9547 453.1C82.9547 450.482 84.1307 449.04 85.8387 449.04C87.5467 449.04 88.7227 450.482 88.7227 453.1C88.7227 455.718 87.5467 457.16 85.8387 457.16ZM95.3082 458.084C97.5762 458.084 99.2282 456.222 99.2282 453.1C99.2282 449.978 97.5762 448.116 95.3082 448.116C93.0402 448.116 91.4022 449.978 91.4022 453.1C91.4022 456.222 93.0402 458.084 95.3082 458.084ZM95.3082 457.16C93.6002 457.16 92.4242 455.718 92.4242 453.1C92.4242 450.482 93.6002 449.04 95.3082 449.04C97.0162 449.04 98.1922 450.482 98.1922 453.1C98.1922 455.718 97.0162 457.16 95.3082 457.16ZM112.926 458H114.018L109.538 448.2H108.516L104.036 458H105.114L106.29 455.382H111.75L112.926 458ZM106.668 454.542L109.02 449.278L111.372 454.542H106.668ZM120.468 450.636L117.682 456.908L114.924 450.636H113.888L117.15 458H118.172L121.448 450.636H120.468ZM125.405 450.58C124.243 450.58 123.151 450.944 122.409 451.574L122.857 452.316C123.459 451.784 124.355 451.448 125.307 451.448C126.679 451.448 127.393 452.134 127.393 453.394V453.842H125.055C122.941 453.842 122.213 454.794 122.213 455.928C122.213 457.202 123.235 458.07 124.901 458.07C126.119 458.07 126.987 457.608 127.435 456.852V458H128.387V453.436C128.387 451.532 127.309 450.58 125.405 450.58ZM125.055 457.286C123.879 457.286 123.193 456.754 123.193 455.9C123.193 455.144 123.655 454.584 125.083 454.584H127.393V455.788C127.001 456.754 126.175 457.286 125.055 457.286ZM131.791 449.026C132.211 449.026 132.519 448.704 132.519 448.298C132.519 447.92 132.197 447.612 131.791 447.612C131.385 447.612 131.063 447.934 131.063 448.312C131.063 448.704 131.385 449.026 131.791 449.026ZM131.287 458H132.281V450.636H131.287V458ZM135.247 458H136.241V447.612H135.247V458ZM141.782 450.58C140.62 450.58 139.528 450.944 138.786 451.574L139.234 452.316C139.836 451.784 140.732 451.448 141.684 451.448C143.056 451.448 143.77 452.134 143.77 453.394V453.842H141.432C139.318 453.842 138.59 454.794 138.59 455.928C138.59 457.202 139.612 458.07 141.278 458.07C142.496 458.07 143.364 457.608 143.812 456.852V458H144.764V453.436C144.764 451.532 143.686 450.58 141.782 450.58ZM141.432 457.286C140.256 457.286 139.57 456.754 139.57 455.9C139.57 455.144 140.032 454.584 141.46 454.584H143.77V455.788C143.378 456.754 142.552 457.286 141.432 457.286ZM151.458 450.58C150.282 450.58 149.274 451.084 148.658 452.036V447.612H147.664V458H148.616V456.544C149.218 457.538 150.24 458.07 151.458 458.07C153.558 458.07 155.126 456.544 155.126 454.318C155.126 452.092 153.558 450.58 151.458 450.58ZM151.388 457.188C149.82 457.188 148.644 456.04 148.644 454.318C148.644 452.596 149.82 451.448 151.388 451.448C152.942 451.448 154.132 452.596 154.132 454.318C154.132 456.04 152.942 457.188 151.388 457.188ZM157.352 458H158.346V447.612H157.352V458ZM167.738 454.318C167.738 452.106 166.24 450.58 164.168 450.58C162.096 450.58 160.57 452.134 160.57 454.318C160.57 456.502 162.138 458.07 164.434 458.07C165.596 458.07 166.618 457.65 167.276 456.866L166.716 456.222C166.156 456.866 165.358 457.188 164.462 457.188C162.852 457.188 161.676 456.166 161.564 454.626H167.724C167.724 454.514 167.738 454.402 167.738 454.318ZM164.168 451.434C165.61 451.434 166.66 452.442 166.786 453.884H161.564C161.69 452.442 162.74 451.434 164.168 451.434Z" fill="#737373"/>
<path d="M519.492 449L524.492 454L529.492 449L531.492 450L524.492 457L517.492 450L519.492 449Z" fill="#737373"/>
</g>
</g>
</g>
<rect x="50.5" y="518" width="510" height="52" rx="5" fill="#23A6F0"/>
<path d="M242.257 549H237.973V539.214H241.781C242.443 539.214 243.013 539.293 243.489 539.452C243.974 539.611 244.338 539.825 244.581 540.096C245.019 540.6 245.239 541.169 245.239 541.804C245.239 542.569 244.991 543.139 244.497 543.512C244.329 543.643 244.212 543.727 244.147 543.764C244.081 543.792 243.965 543.843 243.797 543.918C244.403 544.049 244.884 544.324 245.239 544.744C245.603 545.155 245.785 545.668 245.785 546.284C245.785 546.965 245.551 547.567 245.085 548.09C244.543 548.697 243.601 549 242.257 549ZM240.157 543.176H241.193C241.799 543.176 242.247 543.111 242.537 542.98C242.835 542.849 242.985 542.569 242.985 542.14C242.985 541.701 242.849 541.412 242.579 541.272C242.308 541.132 241.851 541.062 241.207 541.062H240.157V543.176ZM240.157 547.152H241.655C242.28 547.152 242.747 547.077 243.055 546.928C243.372 546.769 243.531 546.466 243.531 546.018C243.531 545.561 243.363 545.262 243.027 545.122C242.7 544.973 242.173 544.898 241.445 544.898H240.157V547.152ZM249.227 545.234C249.227 545.85 249.399 546.354 249.745 546.746C250.099 547.129 250.547 547.32 251.089 547.32C251.639 547.32 252.087 547.129 252.433 546.746C252.787 546.354 252.965 545.85 252.965 545.234C252.965 544.618 252.787 544.114 252.433 543.722C252.087 543.33 251.639 543.134 251.089 543.134C250.547 543.134 250.099 543.33 249.745 543.722C249.399 544.114 249.227 544.618 249.227 545.234ZM255.079 545.234C255.079 546.326 254.701 547.245 253.945 547.992C253.189 548.739 252.237 549.112 251.089 549.112C249.95 549.112 249.003 548.739 248.247 547.992C247.491 547.245 247.113 546.326 247.113 545.234C247.113 544.142 247.491 543.223 248.247 542.476C249.003 541.72 249.95 541.342 251.089 541.342C252.237 541.342 253.189 541.72 253.945 542.476C254.701 543.223 255.079 544.142 255.079 545.234ZM258.518 545.234C258.518 545.85 258.691 546.354 259.036 546.746C259.391 547.129 259.839 547.32 260.38 547.32C260.931 547.32 261.379 547.129 261.724 546.746C262.079 546.354 262.256 545.85 262.256 545.234C262.256 544.618 262.079 544.114 261.724 543.722C261.379 543.33 260.931 543.134 260.38 543.134C259.839 543.134 259.391 543.33 259.036 543.722C258.691 544.114 258.518 544.618 258.518 545.234ZM264.37 545.234C264.37 546.326 263.992 547.245 263.236 547.992C262.48 548.739 261.528 549.112 260.38 549.112C259.242 549.112 258.294 548.739 257.538 547.992C256.782 547.245 256.404 546.326 256.404 545.234C256.404 544.142 256.782 543.223 257.538 542.476C258.294 541.72 259.242 541.342 260.38 541.342C261.528 541.342 262.48 541.72 263.236 542.476C263.992 543.223 264.37 544.142 264.37 545.234ZM268.23 549H266.13V538.612H268.23V543.946L270.568 541.454H273.214L270.344 544.506L273.326 549H270.834L268.916 546.116L268.23 546.83V549ZM285.73 549L284.82 546.886H280.718L279.808 549H277.484L281.712 539.214H283.826L288.054 549H285.73ZM282.776 542.126L281.544 544.968H283.994L282.776 542.126ZM293.561 541.342C294.439 541.342 295.218 541.711 295.899 542.448C296.59 543.176 296.935 544.095 296.935 545.206C296.935 546.317 296.59 547.245 295.899 547.992C295.218 548.739 294.415 549.112 293.491 549.112C292.577 549.112 291.839 548.743 291.279 548.006V551.716H289.179V541.468H291.279V542.308C291.923 541.664 292.684 541.342 293.561 541.342ZM291.251 545.248C291.251 545.855 291.419 546.354 291.755 546.746C292.101 547.129 292.516 547.32 293.001 547.32C293.487 547.32 293.911 547.129 294.275 546.746C294.639 546.354 294.821 545.855 294.821 545.248C294.821 544.641 294.644 544.133 294.289 543.722C293.935 543.311 293.51 543.106 293.015 543.106C292.521 543.106 292.101 543.311 291.755 543.722C291.419 544.123 291.251 544.632 291.251 545.248ZM303.086 541.342C303.963 541.342 304.742 541.711 305.424 542.448C306.114 543.176 306.46 544.095 306.46 545.206C306.46 546.317 306.114 547.245 305.424 547.992C304.742 548.739 303.94 549.112 303.016 549.112C302.101 549.112 301.364 548.743 300.804 548.006V551.716H298.704V541.468H300.804V542.308C301.448 541.664 302.208 541.342 303.086 541.342ZM300.776 545.248C300.776 545.855 300.944 546.354 301.28 546.746C301.625 547.129 302.04 547.32 302.526 547.32C303.011 547.32 303.436 547.129 303.8 546.746C304.164 546.354 304.346 545.855 304.346 545.248C304.346 544.641 304.168 544.133 303.814 543.722C303.459 543.311 303.034 543.106 302.54 543.106C302.045 543.106 301.625 543.311 301.28 543.722C300.944 544.123 300.776 544.632 300.776 545.248ZM309.908 545.234C309.908 545.85 310.08 546.354 310.426 546.746C310.78 547.129 311.228 547.32 311.77 547.32C312.32 547.32 312.768 547.129 313.114 546.746C313.468 546.354 313.646 545.85 313.646 545.234C313.646 544.618 313.468 544.114 313.114 543.722C312.768 543.33 312.32 543.134 311.77 543.134C311.228 543.134 310.78 543.33 310.426 543.722C310.08 544.114 309.908 544.618 309.908 545.234ZM315.76 545.234C315.76 546.326 315.382 547.245 314.626 547.992C313.87 548.739 312.918 549.112 311.77 549.112C310.631 549.112 309.684 548.739 308.928 547.992C308.172 547.245 307.794 546.326 307.794 545.234C307.794 544.142 308.172 543.223 308.928 542.476C309.684 541.72 310.631 541.342 311.77 541.342C312.918 541.342 313.87 541.72 314.626 542.476C315.382 543.223 315.76 544.142 315.76 545.234ZM319.62 549H317.52V541.468H319.62V549ZM317.688 540.516C317.454 540.273 317.338 539.979 317.338 539.634C317.338 539.289 317.454 538.999 317.688 538.766C317.93 538.523 318.224 538.402 318.57 538.402C318.915 538.402 319.204 538.523 319.438 538.766C319.68 538.999 319.802 539.289 319.802 539.634C319.802 539.979 319.68 540.273 319.438 540.516C319.204 540.749 318.915 540.866 318.57 540.866C318.224 540.866 317.93 540.749 317.688 540.516ZM323.907 544.8V549H321.807V541.468H323.907V542.308C324.542 541.664 325.256 541.342 326.049 541.342C326.843 541.342 327.505 541.622 328.037 542.182C328.579 542.742 328.849 543.489 328.849 544.422V549H326.749V544.744C326.749 543.587 326.325 543.008 325.475 543.008C325.055 543.008 324.687 543.162 324.369 543.47C324.061 543.769 323.907 544.212 323.907 544.8ZM333.346 542.98V546.354C333.346 546.643 333.42 546.872 333.57 547.04C333.719 547.199 333.896 547.278 334.102 547.278C334.494 547.278 334.825 547.101 335.096 546.746L335.88 548.216C335.226 548.813 334.536 549.112 333.808 549.112C333.089 549.112 332.478 548.874 331.974 548.398C331.479 547.922 331.232 547.273 331.232 546.452V542.98H330.35V541.468H331.232V539.214H333.346V541.468H335.166V542.98H333.346ZM344.122 544.94V549H342.008V544.884C342.008 544.287 341.914 543.848 341.728 543.568C341.55 543.288 341.256 543.148 340.846 543.148C340.444 543.148 340.085 543.302 339.768 543.61C339.46 543.909 339.306 544.352 339.306 544.94V549H337.206V541.468H339.306V542.322C339.884 541.669 340.547 541.342 341.294 541.342C341.77 541.342 342.199 541.482 342.582 541.762C342.974 542.042 343.268 542.383 343.464 542.784C343.753 542.327 344.14 541.972 344.626 541.72C345.12 541.468 345.615 541.342 346.11 541.342C346.996 541.342 347.71 541.608 348.252 542.14C348.793 542.663 349.064 543.423 349.064 544.422V549H346.95V544.884C346.95 543.727 346.525 543.148 345.676 543.148C345.256 543.148 344.892 543.302 344.584 543.61C344.276 543.909 344.122 544.352 344.122 544.94ZM357.697 547.908C356.848 548.711 355.849 549.112 354.701 549.112C353.562 549.112 352.62 548.762 351.873 548.062C351.126 547.353 350.753 546.405 350.753 545.22C350.753 544.035 351.131 543.092 351.887 542.392C352.652 541.692 353.553 541.342 354.589 541.342C355.625 541.342 356.502 541.655 357.221 542.28C357.949 542.905 358.313 543.764 358.313 544.856V545.976H352.825C352.89 546.387 353.105 546.723 353.469 546.984C353.833 547.245 354.244 547.376 354.701 547.376C355.438 547.376 356.045 547.129 356.521 546.634L357.697 547.908ZM356.185 544.478C356.138 544.03 355.97 543.685 355.681 543.442C355.392 543.199 355.037 543.078 354.617 543.078C354.206 543.078 353.828 543.204 353.483 543.456C353.138 543.708 352.937 544.049 352.881 544.478H356.185ZM362.127 544.8V549H360.027V541.468H362.127V542.308C362.762 541.664 363.476 541.342 364.269 541.342C365.063 541.342 365.725 541.622 366.257 542.182C366.799 542.742 367.069 543.489 367.069 544.422V549H364.969V544.744C364.969 543.587 364.545 543.008 363.695 543.008C363.275 543.008 362.907 543.162 362.589 543.47C362.281 543.769 362.127 544.212 362.127 544.8ZM371.565 542.98V546.354C371.565 546.643 371.64 546.872 371.789 547.04C371.939 547.199 372.116 547.278 372.321 547.278C372.713 547.278 373.045 547.101 373.315 546.746L374.099 548.216C373.446 548.813 372.755 549.112 372.027 549.112C371.309 549.112 370.697 548.874 370.193 548.398C369.699 547.922 369.451 547.273 369.451 546.452V542.98H368.569V541.468H369.451V539.214H371.565V541.468H373.385V542.98H371.565Z" fill="white"/>
<defs>
<clipPath id="clip0_1479_17315">
<rect x="50.5" y="112" width="510" height="366" rx="1" fill="white"/>
</clipPath>
<clipPath id="clip1_1479_17315">
<rect width="507" height="50" fill="white" transform="translate(52.5 146)"/>
</clipPath>
<clipPath id="clip2_1479_17315">
<rect width="508" height="50" fill="white" transform="translate(52.5 240)"/>
</clipPath>
<clipPath id="clip3_1479_17315">
<rect width="510" height="50" fill="white" transform="translate(50.5 334)"/>
</clipPath>
<clipPath id="clip4_1479_17315">
<rect width="510" height="50" fill="white" transform="translate(50.5 334)"/>
</clipPath>
<clipPath id="clip5_1479_17315">
<rect width="510" height="50" fill="white" transform="translate(50.5 428)"/>
</clipPath>
<clipPath id="clip6_1479_17315">
<rect width="510" height="50" fill="white" transform="translate(50.5 428)"/>
</clipPath>
</defs>
</svg>
