<svg width="509" height="243" viewBox="0 0 509 243" fill="none" xmlns="http://www.w3.org/2000/svg">
<rect y="0.5" width="508" height="242" rx="9.5" fill="white"/>
<rect y="0.5" width="508" height="242" rx="9.5" stroke="#23A6F0"/>
<path d="M63.084 58.224V61.512H55.308V65.136H62.7V68.424H55.308V75H51.564V58.224H63.084ZM79.9673 63.792C79.9673 66.48 78.9033 68.216 76.7753 69L81.0233 75H76.4153L72.6953 69.648H70.1033V75H66.3593V58.224H72.7193C75.3273 58.224 77.1833 58.664 78.2873 59.544C79.4073 60.424 79.9673 61.84 79.9673 63.792ZM72.8393 66.408C74.1193 66.408 74.9913 66.2 75.4553 65.784C75.9193 65.368 76.1513 64.712 76.1513 63.816C76.1513 62.904 75.9113 62.28 75.4313 61.944C74.9513 61.608 74.1113 61.44 72.9113 61.44H70.1033V66.408H72.8393ZM95.9928 58.224V61.56H87.6408V65.016H95.1528V68.208H87.6408V71.688H96.2568V75H83.8968V58.224H95.9928ZM111.796 58.224V61.56H103.444V65.016H110.956V68.208H103.444V71.688H112.06V75H99.6999V58.224H111.796Z" fill="#23A6F0"/>
<path d="M61.54 114L61.526 104.2H60.028L56.206 110.696L52.314 104.2H50.816V114H52.552V107.588L55.772 112.88H56.584L59.804 107.504L59.818 114H61.54ZM67.5791 114.098C69.9031 114.098 71.5691 112.502 71.5691 110.262C71.5691 108.022 69.9031 106.44 67.5791 106.44C65.2831 106.44 63.6031 108.022 63.6031 110.262C63.6031 112.502 65.2831 114.098 67.5791 114.098ZM67.5791 112.6C66.3191 112.6 65.3671 111.69 65.3671 110.262C65.3671 108.834 66.3191 107.924 67.5791 107.924C68.8531 107.924 69.8051 108.834 69.8051 110.262C69.8051 111.69 68.8531 112.6 67.5791 112.6ZM75.7525 114.098C77.8525 114.098 79.1405 113.188 79.1405 111.788C79.1405 108.862 74.5205 110.206 74.5205 108.694C74.5205 108.204 75.0245 107.854 76.0885 107.854C76.8025 107.854 77.5165 107.994 78.2305 108.414L78.9025 107.084C78.2305 106.678 77.0965 106.44 76.1025 106.44C74.0865 106.44 72.8125 107.364 72.8125 108.778C72.8125 111.76 77.4325 110.416 77.4325 111.844C77.4325 112.362 76.9705 112.67 75.8645 112.67C74.9265 112.67 73.9185 112.362 73.2605 111.928L72.5885 113.258C73.2605 113.734 74.5065 114.098 75.7525 114.098ZM84.8516 112.348C84.5856 112.558 84.2356 112.656 83.8716 112.656C83.1996 112.656 82.8356 112.264 82.8356 111.536V107.98H84.8376V106.58H82.8356V104.872H81.0856V106.58H79.8536V107.98H81.0856V111.578C81.0856 113.23 82.0236 114.098 83.6616 114.098C84.2916 114.098 84.9216 113.93 85.3416 113.594L84.8516 112.348ZM94.4803 114.098C95.9363 114.098 97.0983 113.468 97.6723 112.348L96.3283 111.564C95.8803 112.278 95.2083 112.6 94.4663 112.6C93.1783 112.6 92.1983 111.718 92.1983 110.262C92.1983 108.82 93.1783 107.924 94.4663 107.924C95.2083 107.924 95.8803 108.246 96.3283 108.96L97.6723 108.176C97.0983 107.042 95.9363 106.44 94.4803 106.44C92.1143 106.44 90.4343 108.022 90.4343 110.262C90.4343 112.502 92.1143 114.098 94.4803 114.098ZM102.241 106.44C101.037 106.44 99.8751 106.748 99.0771 107.364L99.7631 108.638C100.323 108.176 101.191 107.896 102.031 107.896C103.277 107.896 103.893 108.498 103.893 109.52V109.632H101.961C99.6931 109.632 98.8531 110.612 98.8531 111.858C98.8531 113.16 99.9311 114.098 101.639 114.098C102.759 114.098 103.571 113.734 103.991 113.09V114H105.643V109.618C105.643 107.462 104.397 106.44 102.241 106.44ZM102.003 112.824C101.107 112.824 100.575 112.418 100.575 111.788C100.575 111.242 100.897 110.794 102.087 110.794H103.893V111.662C103.599 112.432 102.857 112.824 102.003 112.824ZM108.089 114H109.839V103.612H108.089V114ZM119.364 110.304C119.364 107.966 117.768 106.44 115.584 106.44C113.358 106.44 111.72 108.036 111.72 110.262C111.72 112.488 113.344 114.098 115.85 114.098C117.138 114.098 118.188 113.678 118.86 112.88L117.922 111.802C117.39 112.348 116.732 112.614 115.892 112.614C114.59 112.614 113.68 111.914 113.47 110.822H119.336C119.35 110.654 119.364 110.444 119.364 110.304ZM115.584 107.84C116.732 107.84 117.558 108.582 117.698 109.66H113.456C113.624 108.568 114.45 107.84 115.584 107.84ZM125.487 106.44C124.395 106.44 123.485 106.804 122.911 107.49V106.524H121.245V114H122.995V110.22C122.995 108.722 123.835 107.966 125.081 107.966C126.201 107.966 126.859 108.61 126.859 109.94V114H128.609V109.716C128.609 107.462 127.279 106.44 125.487 106.44ZM136.669 103.612V107.448C136.081 106.762 135.227 106.44 134.261 106.44C132.091 106.44 130.481 107.938 130.481 110.262C130.481 112.586 132.091 114.098 134.261 114.098C135.283 114.098 136.151 113.748 136.739 113.034V114H138.419V103.612H136.669ZM134.471 112.6C133.211 112.6 132.245 111.69 132.245 110.262C132.245 108.834 133.211 107.924 134.471 107.924C135.731 107.924 136.697 108.834 136.697 110.262C136.697 111.69 135.731 112.6 134.471 112.6ZM143.765 106.44C142.561 106.44 141.399 106.748 140.601 107.364L141.287 108.638C141.847 108.176 142.715 107.896 143.555 107.896C144.801 107.896 145.417 108.498 145.417 109.52V109.632H143.485C141.217 109.632 140.377 110.612 140.377 111.858C140.377 113.16 141.455 114.098 143.163 114.098C144.283 114.098 145.095 113.734 145.515 113.09V114H147.167V109.618C147.167 107.462 145.921 106.44 143.765 106.44ZM143.527 112.824C142.631 112.824 142.099 112.418 142.099 111.788C142.099 111.242 142.421 110.794 143.611 110.794H145.417V111.662C145.123 112.432 144.381 112.824 143.527 112.824ZM151.278 107.616V106.524H149.612V114H151.362V110.374C151.362 108.848 152.202 108.064 153.532 108.064C153.658 108.064 153.784 108.078 153.938 108.106V106.44C152.692 106.44 151.782 106.832 151.278 107.616ZM157.96 114.098C160.06 114.098 161.348 113.188 161.348 111.788C161.348 108.862 156.728 110.206 156.728 108.694C156.728 108.204 157.232 107.854 158.296 107.854C159.01 107.854 159.724 107.994 160.438 108.414L161.11 107.084C160.438 106.678 159.304 106.44 158.31 106.44C156.294 106.44 155.02 107.364 155.02 108.778C155.02 111.76 159.64 110.416 159.64 111.844C159.64 112.362 159.178 112.67 158.072 112.67C157.134 112.67 156.126 112.362 155.468 111.928L154.796 113.258C155.468 113.734 156.714 114.098 157.96 114.098ZM169.981 106.44C168.777 106.44 167.615 106.748 166.817 107.364L167.503 108.638C168.063 108.176 168.931 107.896 169.771 107.896C171.017 107.896 171.633 108.498 171.633 109.52V109.632H169.701C167.433 109.632 166.593 110.612 166.593 111.858C166.593 113.16 167.671 114.098 169.379 114.098C170.499 114.098 171.311 113.734 171.731 113.09V114H173.383V109.618C173.383 107.462 172.137 106.44 169.981 106.44ZM169.743 112.824C168.847 112.824 168.315 112.418 168.315 111.788C168.315 111.242 168.637 110.794 169.827 110.794H171.633V111.662C171.339 112.432 170.597 112.824 169.743 112.824ZM177.494 107.616V106.524H175.828V114H177.578V110.374C177.578 108.848 178.418 108.064 179.748 108.064C179.874 108.064 180 108.078 180.154 108.106V106.44C178.908 106.44 177.998 106.832 177.494 107.616ZM188.799 110.304C188.799 107.966 187.203 106.44 185.019 106.44C182.793 106.44 181.155 108.036 181.155 110.262C181.155 112.488 182.779 114.098 185.285 114.098C186.573 114.098 187.623 113.678 188.295 112.88L187.357 111.802C186.825 112.348 186.167 112.614 185.327 112.614C184.025 112.614 183.115 111.914 182.905 110.822H188.771C188.785 110.654 188.799 110.444 188.799 110.304ZM185.019 107.84C186.167 107.84 186.993 108.582 187.133 109.66H182.891C183.059 108.568 183.885 107.84 185.019 107.84ZM200.321 103.612V107.448C199.733 106.762 198.879 106.44 197.913 106.44C195.743 106.44 194.133 107.938 194.133 110.262C194.133 112.586 195.743 114.098 197.913 114.098C198.935 114.098 199.803 113.748 200.391 113.034V114H202.071V103.612H200.321ZM198.123 112.6C196.863 112.6 195.897 111.69 195.897 110.262C195.897 108.834 196.863 107.924 198.123 107.924C199.383 107.924 200.349 108.834 200.349 110.262C200.349 111.69 199.383 112.6 198.123 112.6ZM211.588 110.304C211.588 107.966 209.992 106.44 207.808 106.44C205.582 106.44 203.944 108.036 203.944 110.262C203.944 112.488 205.568 114.098 208.074 114.098C209.362 114.098 210.412 113.678 211.084 112.88L210.146 111.802C209.614 112.348 208.956 112.614 208.116 112.614C206.814 112.614 205.904 111.914 205.694 110.822H211.56C211.574 110.654 211.588 110.444 211.588 110.304ZM207.808 107.84C208.956 107.84 209.782 108.582 209.922 109.66H205.68C205.848 108.568 206.674 107.84 207.808 107.84ZM215.779 114.098C217.879 114.098 219.167 113.188 219.167 111.788C219.167 108.862 214.547 110.206 214.547 108.694C214.547 108.204 215.051 107.854 216.115 107.854C216.829 107.854 217.543 107.994 218.257 108.414L218.929 107.084C218.257 106.678 217.123 106.44 216.129 106.44C214.113 106.44 212.839 107.364 212.839 108.778C212.839 111.76 217.459 110.416 217.459 111.844C217.459 112.362 216.997 112.67 215.891 112.67C214.953 112.67 213.945 112.362 213.287 111.928L212.615 113.258C213.287 113.734 214.533 114.098 215.779 114.098ZM221.756 105.292C222.414 105.292 222.876 104.816 222.876 104.2C222.876 103.626 222.4 103.192 221.756 103.192C221.112 103.192 220.636 103.654 220.636 104.242C220.636 104.83 221.112 105.292 221.756 105.292ZM220.874 114H222.624V106.524H220.874V114ZM230.875 106.524V107.518C230.259 106.776 229.335 106.44 228.285 106.44C226.143 106.44 224.505 107.868 224.505 110.038C224.505 112.208 226.143 113.664 228.285 113.664C229.293 113.664 230.175 113.342 230.791 112.67V113.062C230.791 114.574 230.063 115.33 228.411 115.33C227.375 115.33 226.311 114.98 225.653 114.434L224.869 115.75C225.723 116.45 227.109 116.814 228.509 116.814C231.127 116.814 232.541 115.582 232.541 112.866V106.524H230.875ZM228.551 112.18C227.221 112.18 226.269 111.312 226.269 110.038C226.269 108.778 227.221 107.924 228.551 107.924C229.867 107.924 230.819 108.778 230.819 110.038C230.819 111.312 229.867 112.18 228.551 112.18ZM239.284 106.44C238.192 106.44 237.282 106.804 236.708 107.49V106.524H235.042V114H236.792V110.22C236.792 108.722 237.632 107.966 238.878 107.966C239.998 107.966 240.656 108.61 240.656 109.94V114H242.406V109.716C242.406 107.462 241.076 106.44 239.284 106.44ZM251.922 110.304C251.922 107.966 250.326 106.44 248.142 106.44C245.916 106.44 244.278 108.036 244.278 110.262C244.278 112.488 245.902 114.098 248.408 114.098C249.696 114.098 250.746 113.678 251.418 112.88L250.48 111.802C249.948 112.348 249.29 112.614 248.45 112.614C247.148 112.614 246.238 111.914 246.028 110.822H251.894C251.908 110.654 251.922 110.444 251.922 110.304ZM248.142 107.84C249.29 107.84 250.116 108.582 250.256 109.66H246.014C246.182 108.568 247.008 107.84 248.142 107.84ZM259.375 103.612V107.448C258.787 106.762 257.933 106.44 256.967 106.44C254.797 106.44 253.187 107.938 253.187 110.262C253.187 112.586 254.797 114.098 256.967 114.098C257.989 114.098 258.857 113.748 259.445 113.034V114H261.125V103.612H259.375ZM257.177 112.6C255.917 112.6 254.951 111.69 254.951 110.262C254.951 108.834 255.917 107.924 257.177 107.924C258.437 107.924 259.403 108.834 259.403 110.262C259.403 111.69 258.437 112.6 257.177 112.6ZM53.686 128.928C54.05 128.928 54.386 129.054 54.652 129.236L55.142 127.92C54.75 127.64 54.162 127.514 53.56 127.514C51.824 127.514 50.886 128.536 50.886 130.104V130.58H49.654V131.98H50.886V138H52.636V131.98H54.638V130.58H52.58V130.132C52.58 129.334 52.958 128.928 53.686 128.928ZM59.2666 138.098C61.5906 138.098 63.2566 136.502 63.2566 134.262C63.2566 132.022 61.5906 130.44 59.2666 130.44C56.9706 130.44 55.2906 132.022 55.2906 134.262C55.2906 136.502 56.9706 138.098 59.2666 138.098ZM59.2666 136.6C58.0066 136.6 57.0546 135.69 57.0546 134.262C57.0546 132.834 58.0066 131.924 59.2666 131.924C60.5406 131.924 61.4926 132.834 61.4926 134.262C61.4926 135.69 60.5406 136.6 59.2666 136.6ZM66.796 131.616V130.524H65.13V138H66.88V134.374C66.88 132.848 67.72 132.064 69.05 132.064C69.176 132.064 69.302 132.078 69.456 132.106V130.44C68.21 130.44 67.3 130.832 66.796 131.616ZM79.2821 136.348C79.0161 136.558 78.6661 136.656 78.3021 136.656C77.6301 136.656 77.2661 136.264 77.2661 135.536V131.98H79.2681V130.58H77.2661V128.872H75.5161V130.58H74.2841V131.98H75.5161V135.578C75.5161 137.23 76.4541 138.098 78.0921 138.098C78.7221 138.098 79.3521 137.93 79.7721 137.594L79.2821 136.348ZM88.1936 134.304C88.1936 131.966 86.5976 130.44 84.4136 130.44C82.1876 130.44 80.5496 132.036 80.5496 134.262C80.5496 136.488 82.1736 138.098 84.6796 138.098C85.9676 138.098 87.0176 137.678 87.6896 136.88L86.7516 135.802C86.2196 136.348 85.5616 136.614 84.7216 136.614C83.4196 136.614 82.5096 135.914 82.2996 134.822H88.1656C88.1796 134.654 88.1936 134.444 88.1936 134.304ZM84.4136 131.84C85.5616 131.84 86.3876 132.582 86.5276 133.66H82.2856C82.4536 132.568 83.2796 131.84 84.4136 131.84ZM92.7255 130.44C91.5215 130.44 90.3595 130.748 89.5615 131.364L90.2475 132.638C90.8075 132.176 91.6755 131.896 92.5155 131.896C93.7615 131.896 94.3775 132.498 94.3775 133.52V133.632H92.4455C90.1775 133.632 89.3375 134.612 89.3375 135.858C89.3375 137.16 90.4155 138.098 92.1235 138.098C93.2435 138.098 94.0555 137.734 94.4755 137.09V138H96.1275V133.618C96.1275 131.462 94.8815 130.44 92.7255 130.44ZM92.4875 136.824C91.5915 136.824 91.0595 136.418 91.0595 135.788C91.0595 135.242 91.3815 134.794 92.5715 134.794H94.3775V135.662C94.0835 136.432 93.3415 136.824 92.4875 136.824ZM108.009 130.44C106.819 130.44 105.811 130.916 105.209 131.686C104.691 130.846 103.781 130.44 102.689 130.44C101.667 130.44 100.799 130.804 100.239 131.476V130.524H98.5734V138H100.323V134.206C100.323 132.722 101.107 131.966 102.269 131.966C103.333 131.966 103.949 132.61 103.949 133.94V138H105.699V134.206C105.699 132.722 106.497 131.966 107.645 131.966C108.709 131.966 109.325 132.61 109.325 133.94V138H111.075V133.716C111.075 131.462 109.815 130.44 108.009 130.44ZM115.822 138.098C117.922 138.098 119.21 137.188 119.21 135.788C119.21 132.862 114.59 134.206 114.59 132.694C114.59 132.204 115.094 131.854 116.158 131.854C116.872 131.854 117.586 131.994 118.3 132.414L118.972 131.084C118.3 130.678 117.166 130.44 116.172 130.44C114.156 130.44 112.882 131.364 112.882 132.778C112.882 135.76 117.502 134.416 117.502 135.844C117.502 136.362 117.04 136.67 115.934 136.67C114.996 136.67 113.988 136.362 113.33 135.928L112.658 137.258C113.33 137.734 114.576 138.098 115.822 138.098ZM121.477 138.098C122.107 138.098 122.625 137.608 122.625 136.936C122.625 136.236 122.107 135.774 121.477 135.774C120.847 135.774 120.329 136.236 120.329 136.936C120.329 137.608 120.847 138.098 121.477 138.098ZM131.81 138.14C134.498 138.14 135.772 136.796 135.772 135.228C135.772 131.63 129.962 132.988 129.962 130.902C129.962 130.16 130.578 129.572 132.09 129.572C132.944 129.572 133.91 129.824 134.792 130.342L135.366 128.928C134.512 128.368 133.28 128.06 132.104 128.06C129.416 128.06 128.156 129.404 128.156 130.986C128.156 134.626 133.98 133.24 133.98 135.354C133.98 136.082 133.336 136.628 131.81 136.628C130.606 136.628 129.36 136.18 128.576 135.55L127.946 136.964C128.758 137.664 130.284 138.14 131.81 138.14ZM137.609 138H139.359V127.612H137.609V138ZM144.711 130.44C143.507 130.44 142.345 130.748 141.547 131.364L142.233 132.638C142.793 132.176 143.661 131.896 144.501 131.896C145.747 131.896 146.363 132.498 146.363 133.52V133.632H144.431C142.163 133.632 141.323 134.612 141.323 135.858C141.323 137.16 142.401 138.098 144.109 138.098C145.229 138.098 146.041 137.734 146.461 137.09V138H148.113V133.618C148.113 131.462 146.867 130.44 144.711 130.44ZM144.473 136.824C143.577 136.824 143.045 136.418 143.045 135.788C143.045 135.242 143.367 134.794 144.557 134.794H146.363V135.662C146.069 136.432 145.327 136.824 144.473 136.824ZM154.563 136.348C154.297 136.558 153.947 136.656 153.583 136.656C152.911 136.656 152.547 136.264 152.547 135.536V131.98H154.549V130.58H152.547V128.872H150.797V130.58H149.565V131.98H150.797V135.578C150.797 137.23 151.735 138.098 153.373 138.098C154.003 138.098 154.633 137.93 155.053 137.594L154.563 136.348ZM163.475 134.304C163.475 131.966 161.879 130.44 159.695 130.44C157.469 130.44 155.831 132.036 155.831 134.262C155.831 136.488 157.455 138.098 159.961 138.098C161.249 138.098 162.299 137.678 162.971 136.88L162.033 135.802C161.501 136.348 160.843 136.614 160.003 136.614C158.701 136.614 157.791 135.914 157.581 134.822H163.447C163.461 134.654 163.475 134.444 163.475 134.304ZM159.695 131.84C160.843 131.84 161.669 132.582 161.809 133.66H157.567C157.735 132.568 158.561 131.84 159.695 131.84ZM170.307 129.292C170.965 129.292 171.427 128.816 171.427 128.2C171.427 127.626 170.951 127.192 170.307 127.192C169.663 127.192 169.187 127.654 169.187 128.242C169.187 128.83 169.663 129.292 170.307 129.292ZM169.425 138H171.175V130.524H169.425V138ZM175.982 138.098C178.082 138.098 179.37 137.188 179.37 135.788C179.37 132.862 174.75 134.206 174.75 132.694C174.75 132.204 175.254 131.854 176.318 131.854C177.032 131.854 177.746 131.994 178.46 132.414L179.132 131.084C178.46 130.678 177.326 130.44 176.332 130.44C174.316 130.44 173.042 131.364 173.042 132.778C173.042 135.76 177.662 134.416 177.662 135.844C177.662 136.362 177.2 136.67 176.094 136.67C175.156 136.67 174.148 136.362 173.49 135.928L172.818 137.258C173.49 137.734 174.736 138.098 175.982 138.098ZM190.718 127.612V131.448C190.13 130.762 189.276 130.44 188.31 130.44C186.14 130.44 184.53 131.938 184.53 134.262C184.53 136.586 186.14 138.098 188.31 138.098C189.332 138.098 190.2 137.748 190.788 137.034V138H192.468V127.612H190.718ZM188.52 136.6C187.26 136.6 186.294 135.69 186.294 134.262C186.294 132.834 187.26 131.924 188.52 131.924C189.78 131.924 190.746 132.834 190.746 134.262C190.746 135.69 189.78 136.6 188.52 136.6ZM201.985 134.304C201.985 131.966 200.389 130.44 198.205 130.44C195.979 130.44 194.341 132.036 194.341 134.262C194.341 136.488 195.965 138.098 198.471 138.098C199.759 138.098 200.809 137.678 201.481 136.88L200.543 135.802C200.011 136.348 199.353 136.614 198.513 136.614C197.211 136.614 196.301 135.914 196.091 134.822H201.957C201.971 134.654 201.985 134.444 201.985 134.304ZM198.205 131.84C199.353 131.84 200.179 132.582 200.319 133.66H196.077C196.245 132.568 197.071 131.84 198.205 131.84ZM206.176 138.098C208.276 138.098 209.564 137.188 209.564 135.788C209.564 132.862 204.944 134.206 204.944 132.694C204.944 132.204 205.448 131.854 206.512 131.854C207.226 131.854 207.94 131.994 208.654 132.414L209.326 131.084C208.654 130.678 207.52 130.44 206.526 130.44C204.51 130.44 203.236 131.364 203.236 132.778C203.236 135.76 207.856 134.416 207.856 135.844C207.856 136.362 207.394 136.67 206.288 136.67C205.35 136.67 204.342 136.362 203.684 135.928L203.012 137.258C203.684 137.734 204.93 138.098 206.176 138.098ZM212.153 129.292C212.811 129.292 213.273 128.816 213.273 128.2C213.273 127.626 212.797 127.192 212.153 127.192C211.509 127.192 211.033 127.654 211.033 128.242C211.033 128.83 211.509 129.292 212.153 129.292ZM211.271 138H213.021V130.524H211.271V138ZM221.272 130.524V131.518C220.656 130.776 219.732 130.44 218.682 130.44C216.54 130.44 214.902 131.868 214.902 134.038C214.902 136.208 216.54 137.664 218.682 137.664C219.69 137.664 220.572 137.342 221.188 136.67V137.062C221.188 138.574 220.46 139.33 218.808 139.33C217.772 139.33 216.708 138.98 216.05 138.434L215.266 139.75C216.12 140.45 217.506 140.814 218.906 140.814C221.524 140.814 222.938 139.582 222.938 136.866V130.524H221.272ZM218.948 136.18C217.618 136.18 216.666 135.312 216.666 134.038C216.666 132.778 217.618 131.924 218.948 131.924C220.264 131.924 221.216 132.778 221.216 134.038C221.216 135.312 220.264 136.18 218.948 136.18ZM229.681 130.44C228.589 130.44 227.679 130.804 227.105 131.49V130.524H225.439V138H227.189V134.22C227.189 132.722 228.029 131.966 229.275 131.966C230.395 131.966 231.053 132.61 231.053 133.94V138H232.803V133.716C232.803 131.462 231.473 130.44 229.681 130.44ZM242.319 134.304C242.319 131.966 240.723 130.44 238.539 130.44C236.313 130.44 234.675 132.036 234.675 134.262C234.675 136.488 236.299 138.098 238.805 138.098C240.093 138.098 241.143 137.678 241.815 136.88L240.877 135.802C240.345 136.348 239.687 136.614 238.847 136.614C237.545 136.614 236.635 135.914 236.425 134.822H242.291C242.305 134.654 242.319 134.444 242.319 134.304ZM238.539 131.84C239.687 131.84 240.513 132.582 240.653 133.66H236.411C236.579 132.568 237.405 131.84 238.539 131.84ZM249.772 127.612V131.448C249.184 130.762 248.33 130.44 247.364 130.44C245.194 130.44 243.584 131.938 243.584 134.262C243.584 136.586 245.194 138.098 247.364 138.098C248.386 138.098 249.254 137.748 249.842 137.034V138H251.522V127.612H249.772ZM247.574 136.6C246.314 136.6 245.348 135.69 245.348 134.262C245.348 132.834 246.314 131.924 247.574 131.924C248.834 131.924 249.8 132.834 249.8 134.262C249.8 135.69 248.834 136.6 247.574 136.6ZM53.686 152.928C54.05 152.928 54.386 153.054 54.652 153.236L55.142 151.92C54.75 151.64 54.162 151.514 53.56 151.514C51.824 151.514 50.886 152.536 50.886 154.104V154.58H49.654V155.98H50.886V162H52.636V155.98H54.638V154.58H52.58V154.132C52.58 153.334 52.958 152.928 53.686 152.928ZM59.2666 162.098C61.5906 162.098 63.2566 160.502 63.2566 158.262C63.2566 156.022 61.5906 154.44 59.2666 154.44C56.9706 154.44 55.2906 156.022 55.2906 158.262C55.2906 160.502 56.9706 162.098 59.2666 162.098ZM59.2666 160.6C58.0066 160.6 57.0546 159.69 57.0546 158.262C57.0546 156.834 58.0066 155.924 59.2666 155.924C60.5406 155.924 61.4926 156.834 61.4926 158.262C61.4926 159.69 60.5406 160.6 59.2666 160.6ZM66.796 155.616V154.524H65.13V162H66.88V158.374C66.88 156.848 67.72 156.064 69.05 156.064C69.176 156.064 69.302 156.078 69.456 156.106V154.44C68.21 154.44 67.3 154.832 66.796 155.616ZM78.3161 152.928C78.6801 152.928 79.0161 153.054 79.2821 153.236L79.7721 151.92C79.3801 151.64 78.7921 151.514 78.1901 151.514C76.4541 151.514 75.5161 152.536 75.5161 154.104V154.58H74.2841V155.98H75.5161V162H77.2661V155.98H79.2681V154.58H77.2101V154.132C77.2101 153.334 77.5881 152.928 78.3161 152.928ZM83.4331 155.616V154.524H81.7671V162H83.5171V158.374C83.5171 156.848 84.3571 156.064 85.6871 156.064C85.8131 156.064 85.9391 156.078 86.0931 156.106V154.44C84.8471 154.44 83.9371 154.832 83.4331 155.616ZM94.7373 158.304C94.7373 155.966 93.1413 154.44 90.9573 154.44C88.7313 154.44 87.0933 156.036 87.0933 158.262C87.0933 160.488 88.7173 162.098 91.2233 162.098C92.5113 162.098 93.5613 161.678 94.2333 160.88L93.2953 159.802C92.7633 160.348 92.1053 160.614 91.2653 160.614C89.9633 160.614 89.0533 159.914 88.8433 158.822H94.7093C94.7233 158.654 94.7373 158.444 94.7373 158.304ZM90.9573 155.84C92.1053 155.84 92.9313 156.582 93.0713 157.66H88.8293C88.9973 156.568 89.8233 155.84 90.9573 155.84ZM103.646 158.304C103.646 155.966 102.05 154.44 99.8663 154.44C97.6403 154.44 96.0023 156.036 96.0023 158.262C96.0023 160.488 97.6263 162.098 100.132 162.098C101.42 162.098 102.47 161.678 103.142 160.88L102.204 159.802C101.672 160.348 101.014 160.614 100.174 160.614C98.8723 160.614 97.9623 159.914 97.7523 158.822H103.618C103.632 158.654 103.646 158.444 103.646 158.304ZM99.8663 155.84C101.014 155.84 101.84 156.582 101.98 157.66H97.7383C97.9063 156.568 98.7323 155.84 99.8663 155.84ZM105.527 162H107.277V151.612H105.527V162ZM112.63 154.44C111.426 154.44 110.264 154.748 109.466 155.364L110.152 156.638C110.712 156.176 111.58 155.896 112.42 155.896C113.666 155.896 114.282 156.498 114.282 157.52V157.632H112.35C110.082 157.632 109.242 158.612 109.242 159.858C109.242 161.16 110.32 162.098 112.028 162.098C113.148 162.098 113.96 161.734 114.38 161.09V162H116.032V157.618C116.032 155.462 114.786 154.44 112.63 154.44ZM112.392 160.824C111.496 160.824 110.964 160.418 110.964 159.788C110.964 159.242 111.286 158.794 112.476 158.794H114.282V159.662C113.988 160.432 113.246 160.824 112.392 160.824ZM122.72 154.44C121.628 154.44 120.718 154.804 120.144 155.49V154.524H118.478V162H120.228V158.22C120.228 156.722 121.068 155.966 122.314 155.966C123.434 155.966 124.092 156.61 124.092 157.94V162H125.842V157.716C125.842 155.462 124.512 154.44 122.72 154.44ZM131.76 162.098C133.216 162.098 134.378 161.468 134.952 160.348L133.608 159.564C133.16 160.278 132.488 160.6 131.746 160.6C130.458 160.6 129.478 159.718 129.478 158.262C129.478 156.82 130.458 155.924 131.746 155.924C132.488 155.924 133.16 156.246 133.608 156.96L134.952 156.176C134.378 155.042 133.216 154.44 131.76 154.44C129.394 154.44 127.714 156.022 127.714 158.262C127.714 160.502 129.394 162.098 131.76 162.098ZM143.584 158.304C143.584 155.966 141.988 154.44 139.804 154.44C137.578 154.44 135.94 156.036 135.94 158.262C135.94 160.488 137.564 162.098 140.07 162.098C141.358 162.098 142.408 161.678 143.08 160.88L142.142 159.802C141.61 160.348 140.952 160.614 140.112 160.614C138.81 160.614 137.9 159.914 137.69 158.822H143.556C143.57 158.654 143.584 158.444 143.584 158.304ZM139.804 155.84C140.952 155.84 141.778 156.582 141.918 157.66H137.676C137.844 156.568 138.67 155.84 139.804 155.84ZM147.131 155.616V154.524H145.465V162H147.215V158.374C147.215 156.848 148.055 156.064 149.385 156.064C149.511 156.064 149.637 156.078 149.791 156.106V154.44C148.545 154.44 147.635 154.832 147.131 155.616ZM153.813 162.098C155.913 162.098 157.201 161.188 157.201 159.788C157.201 156.862 152.581 158.206 152.581 156.694C152.581 156.204 153.085 155.854 154.149 155.854C154.863 155.854 155.577 155.994 156.291 156.414L156.963 155.084C156.291 154.678 155.157 154.44 154.163 154.44C152.147 154.44 150.873 155.364 150.873 156.778C150.873 159.76 155.493 158.416 155.493 159.844C155.493 160.362 155.031 160.67 153.925 160.67C152.987 160.67 151.979 160.362 151.321 159.928L150.649 161.258C151.321 161.734 152.567 162.098 153.813 162.098ZM173.085 154.524L171.055 160.068L169.039 154.524H167.569L165.511 160.04L163.537 154.524H161.885L164.629 162H166.309L168.269 156.848L170.201 162H171.881L174.639 154.524H173.085ZM180.284 154.44C179.248 154.44 178.366 154.776 177.792 155.392V151.612H176.042V162H177.792V158.22C177.792 156.722 178.632 155.966 179.878 155.966C180.998 155.966 181.656 156.61 181.656 157.94V162H183.406V157.716C183.406 155.462 182.076 154.44 180.284 154.44ZM189.254 162.098C191.578 162.098 193.244 160.502 193.244 158.262C193.244 156.022 191.578 154.44 189.254 154.44C186.958 154.44 185.278 156.022 185.278 158.262C185.278 160.502 186.958 162.098 189.254 162.098ZM189.254 160.6C187.994 160.6 187.042 159.69 187.042 158.262C187.042 156.834 187.994 155.924 189.254 155.924C190.528 155.924 191.48 156.834 191.48 158.262C191.48 159.69 190.528 160.6 189.254 160.6ZM209.295 154.524L207.265 160.068L205.249 154.524H203.779L201.721 160.04L199.747 154.524H198.095L200.839 162H202.519L204.479 156.848L206.411 162H208.091L210.849 154.524H209.295ZM214.876 154.44C213.672 154.44 212.51 154.748 211.712 155.364L212.398 156.638C212.958 156.176 213.826 155.896 214.666 155.896C215.912 155.896 216.528 156.498 216.528 157.52V157.632H214.596C212.328 157.632 211.488 158.612 211.488 159.858C211.488 161.16 212.566 162.098 214.274 162.098C215.394 162.098 216.206 161.734 216.626 161.09V162H218.278V157.618C218.278 155.462 217.032 154.44 214.876 154.44ZM214.638 160.824C213.742 160.824 213.21 160.418 213.21 159.788C213.21 159.242 213.532 158.794 214.722 158.794H216.528V159.662C216.234 160.432 215.492 160.824 214.638 160.824ZM224.966 154.44C223.874 154.44 222.964 154.804 222.39 155.49V154.524H220.724V162H222.474V158.22C222.474 156.722 223.314 155.966 224.56 155.966C225.68 155.966 226.338 156.61 226.338 157.94V162H228.088V157.716C228.088 155.462 226.758 154.44 224.966 154.44ZM234.512 160.348C234.246 160.558 233.896 160.656 233.532 160.656C232.86 160.656 232.496 160.264 232.496 159.536V155.98H234.498V154.58H232.496V152.872H230.746V154.58H229.514V155.98H230.746V159.578C230.746 161.23 231.684 162.098 233.322 162.098C233.952 162.098 234.582 161.93 235.002 161.594L234.512 160.348ZM57.5731 178.44C56.3691 178.44 55.2071 178.748 54.4091 179.364L55.0951 180.638C55.6551 180.176 56.5231 179.896 57.3631 179.896C58.6091 179.896 59.2251 180.498 59.2251 181.52V181.632H57.2931C55.0251 181.632 54.1851 182.612 54.1851 183.858C54.1851 185.16 55.2631 186.098 56.9711 186.098C58.0911 186.098 58.9031 185.734 59.3231 185.09V186H60.9751V181.618C60.9751 179.462 59.7291 178.44 57.5731 178.44ZM57.3351 184.824C56.4391 184.824 55.9071 184.418 55.9071 183.788C55.9071 183.242 56.2291 182.794 57.4191 182.794H59.2251V183.662C58.9311 184.432 58.1891 184.824 57.3351 184.824ZM69.8002 186.098C71.9002 186.098 73.1882 185.188 73.1882 183.788C73.1882 180.862 68.5682 182.206 68.5682 180.694C68.5682 180.204 69.0722 179.854 70.1362 179.854C70.8502 179.854 71.5642 179.994 72.2782 180.414L72.9502 179.084C72.2782 178.678 71.1442 178.44 70.1502 178.44C68.1342 178.44 66.8602 179.364 66.8602 180.778C66.8602 183.76 71.4802 182.416 71.4802 183.844C71.4802 184.362 71.0182 184.67 69.9122 184.67C68.9742 184.67 67.9662 184.362 67.3082 183.928L66.6362 185.258C67.3082 185.734 68.5542 186.098 69.8002 186.098ZM75.7773 177.292C76.4353 177.292 76.8973 176.816 76.8973 176.2C76.8973 175.626 76.4213 175.192 75.7773 175.192C75.1333 175.192 74.6573 175.654 74.6573 176.242C74.6573 176.83 75.1333 177.292 75.7773 177.292ZM74.8953 186H76.6453V178.524H74.8953V186ZM88.5781 178.44C87.3881 178.44 86.3801 178.916 85.7781 179.686C85.2601 178.846 84.3501 178.44 83.2581 178.44C82.2361 178.44 81.3681 178.804 80.8081 179.476V178.524H79.1421V186H80.8921V182.206C80.8921 180.722 81.6761 179.966 82.8381 179.966C83.9021 179.966 84.5181 180.61 84.5181 181.94V186H86.2681V182.206C86.2681 180.722 87.0661 179.966 88.2141 179.966C89.2781 179.966 89.8941 180.61 89.8941 181.94V186H91.6441V181.716C91.6441 179.462 90.3841 178.44 88.5781 178.44ZM98.2244 178.44C97.2024 178.44 96.3344 178.79 95.7464 179.504V178.524H94.0804V188.716H95.8304V185.09C96.4324 185.776 97.2724 186.098 98.2244 186.098C100.408 186.098 102.018 184.586 102.018 182.262C102.018 179.952 100.408 178.44 98.2244 178.44ZM98.0284 184.6C96.7684 184.6 95.8024 183.69 95.8024 182.262C95.8024 180.834 96.7684 179.924 98.0284 179.924C99.2884 179.924 100.24 180.834 100.24 182.262C100.24 183.69 99.2884 184.6 98.0284 184.6ZM103.878 186H105.628V175.612H103.878V186ZM115.153 182.304C115.153 179.966 113.557 178.44 111.373 178.44C109.147 178.44 107.509 180.036 107.509 182.262C107.509 184.488 109.133 186.098 111.639 186.098C112.927 186.098 113.977 185.678 114.649 184.88L113.711 183.802C113.179 184.348 112.521 184.614 111.681 184.614C110.379 184.614 109.469 183.914 109.259 182.822H115.125C115.139 182.654 115.153 182.444 115.153 182.304ZM111.373 179.84C112.521 179.84 113.347 180.582 113.487 181.66H109.245C109.413 180.568 110.239 179.84 111.373 179.84ZM131.211 178.524L129.181 184.068L127.165 178.524H125.695L123.637 184.04L121.663 178.524H120.011L122.755 186H124.435L126.395 180.848L128.327 186H130.007L132.765 178.524H131.211ZM136.792 178.44C135.588 178.44 134.426 178.748 133.628 179.364L134.314 180.638C134.874 180.176 135.742 179.896 136.582 179.896C137.828 179.896 138.444 180.498 138.444 181.52V181.632H136.512C134.244 181.632 133.404 182.612 133.404 183.858C133.404 185.16 134.482 186.098 136.19 186.098C137.31 186.098 138.122 185.734 138.542 185.09V186H140.194V181.618C140.194 179.462 138.948 178.44 136.792 178.44ZM136.554 184.824C135.658 184.824 135.126 184.418 135.126 183.788C135.126 183.242 135.448 182.794 136.638 182.794H138.444V183.662C138.15 184.432 137.408 184.824 136.554 184.824ZM147.823 178.524L145.457 184.054L143.105 178.524H141.285L144.547 186.028L144.421 186.322C144.085 187.064 143.721 187.358 143.105 187.358C142.629 187.358 142.153 187.162 141.817 186.84L141.117 188.128C141.593 188.562 142.377 188.814 143.119 188.814C144.365 188.814 145.317 188.296 146.003 186.602L149.503 178.524H147.823Z" fill="#737373"/>
<g clip-path="url(#clip0_1479_17273)">
<path d="M306.18 72.12C305.3 73.8267 304.86 76.08 304.86 78.88C304.86 81.68 305.3 83.9333 306.18 85.64C307.06 87.3467 308.433 88.2 310.3 88.2C312.167 88.2 313.54 87.3467 314.42 85.64C315.3 83.9333 315.74 81.68 315.74 78.88C315.74 76.08 315.3 73.8267 314.42 72.12C313.54 70.4133 312.167 69.56 310.3 69.56C308.433 69.56 307.06 70.4133 306.18 72.12ZM310.3 93.32C306.433 93.32 303.54 92.0133 301.62 89.4C299.7 86.76 298.74 83.2533 298.74 78.88C298.74 74.48 299.7 70.9733 301.62 68.36C303.54 65.72 306.433 64.4 310.3 64.4C314.167 64.4 317.06 65.72 318.98 68.36C320.9 70.9733 321.86 74.48 321.86 78.88C321.86 83.2533 320.9 86.76 318.98 89.4C317.06 92.0133 314.167 93.32 310.3 93.32Z" fill="#23A6F0"/>
<path d="M338.82 73.604V72.436C337.465 72.2227 336.217 71.6093 335.076 70.596L336.564 68.788C337.396 69.5133 338.148 69.9773 338.82 70.18V67.796C337.7 67.508 336.879 67.124 336.356 66.644C335.833 66.1533 335.572 65.4547 335.572 64.548C335.572 63.6307 335.871 62.8787 336.468 62.292C337.065 61.6947 337.849 61.3373 338.82 61.22V60.436H340.516V61.252C341.583 61.4013 342.644 61.844 343.7 62.58L342.388 64.468C341.716 63.988 341.092 63.668 340.516 63.508V65.812C341.668 66.1107 342.516 66.5107 343.06 67.012C343.615 67.5133 343.892 68.2227 343.892 69.14C343.892 70.0573 343.583 70.8147 342.964 71.412C342.356 72.0093 341.54 72.3667 340.516 72.484V73.604H338.82ZM341.332 69.268C341.332 69.044 341.273 68.8573 341.156 68.708C341.039 68.5587 340.825 68.42 340.516 68.292V70.26C341.06 70.0893 341.332 69.7587 341.332 69.268ZM338.82 63.444C338.361 63.604 338.132 63.8973 338.132 64.324C338.132 64.7507 338.361 65.076 338.82 65.3V63.444Z" fill="#23A6F0"/>
<path d="M339.848 85.7H335.816V95.5H337.636V92.672H339.848C342.424 92.672 344.02 91.342 344.02 89.186C344.02 87.016 342.424 85.7 339.848 85.7ZM339.764 91.132H337.636V87.24H339.764C341.36 87.24 342.186 87.954 342.186 89.186C342.186 90.418 341.36 91.132 339.764 91.132ZM352.87 91.804C352.87 89.466 351.274 87.94 349.09 87.94C346.864 87.94 345.226 89.536 345.226 91.762C345.226 93.988 346.85 95.598 349.356 95.598C350.644 95.598 351.694 95.178 352.366 94.38L351.428 93.302C350.896 93.848 350.238 94.114 349.398 94.114C348.096 94.114 347.186 93.414 346.976 92.322H352.842C352.856 92.154 352.87 91.944 352.87 91.804ZM349.09 89.34C350.238 89.34 351.064 90.082 351.204 91.16H346.962C347.13 90.068 347.956 89.34 349.09 89.34ZM356.417 89.116V88.024H354.751V95.5H356.501V91.874C356.501 90.348 357.341 89.564 358.671 89.564C358.797 89.564 358.923 89.578 359.077 89.606V87.94C357.831 87.94 356.921 88.332 356.417 89.116ZM375.791 95.5L375.777 85.7H374.279L370.457 92.196L366.565 85.7H365.067V95.5H366.803V89.088L370.023 94.38H370.835L374.055 89.004L374.069 95.5H375.791ZM381.83 95.598C384.154 95.598 385.82 94.002 385.82 91.762C385.82 89.522 384.154 87.94 381.83 87.94C379.534 87.94 377.854 89.522 377.854 91.762C377.854 94.002 379.534 95.598 381.83 95.598ZM381.83 94.1C380.57 94.1 379.618 93.19 379.618 91.762C379.618 90.334 380.57 89.424 381.83 89.424C383.104 89.424 384.056 90.334 384.056 91.762C384.056 93.19 383.104 94.1 381.83 94.1ZM391.936 87.94C390.844 87.94 389.934 88.304 389.36 88.99V88.024H387.694V95.5H389.444V91.72C389.444 90.222 390.284 89.466 391.53 89.466C392.65 89.466 393.308 90.11 393.308 91.44V95.5H395.058V91.216C395.058 88.962 393.728 87.94 391.936 87.94ZM401.482 93.848C401.216 94.058 400.866 94.156 400.502 94.156C399.83 94.156 399.466 93.764 399.466 93.036V89.48H401.468V88.08H399.466V86.372H397.716V88.08H396.484V89.48H397.716V93.078C397.716 94.73 398.654 95.598 400.292 95.598C400.922 95.598 401.552 95.43 401.972 95.094L401.482 93.848ZM407.853 87.94C406.817 87.94 405.935 88.276 405.361 88.892V85.112H403.611V95.5H405.361V91.72C405.361 90.222 406.201 89.466 407.447 89.466C408.567 89.466 409.225 90.11 409.225 91.44V95.5H410.975V91.216C410.975 88.962 409.645 87.94 407.853 87.94Z" fill="#8EC2F2"/>
</g>
<rect x="296.5" y="132" width="162" height="52" rx="5" fill="#23A6F0"/>
<path d="M342.291 155.104V163H340.107V155.104H337.335V153.214H345.063V155.104H342.291ZM350.617 157.316C349.991 157.316 349.525 157.54 349.217 157.988C348.909 158.427 348.755 159.01 348.755 159.738V163H346.655V155.468H348.755V156.462C349.025 156.154 349.361 155.893 349.763 155.678C350.173 155.463 350.589 155.351 351.009 155.342L351.023 157.316H350.617ZM353.912 165.968C353.175 165.968 352.48 165.669 351.826 165.072L352.778 163.518C353.133 163.863 353.497 164.036 353.87 164.036C354.066 164.036 354.234 163.938 354.374 163.742C354.514 163.555 354.584 163.355 354.584 163.14C354.584 162.925 353.614 160.368 351.672 155.468H353.912L355.746 160.158L357.58 155.468H359.82L356.32 164.344C356.115 164.857 355.793 165.254 355.354 165.534C354.925 165.823 354.444 165.968 353.912 165.968ZM367.466 155.034V155.538H369.286V157.05H367.466V163H365.352V157.05H364.47V155.538H365.352V155.076C365.352 154.255 365.599 153.606 366.094 153.13C366.598 152.645 367.218 152.402 367.956 152.402C368.702 152.402 369.379 152.682 369.986 153.242L369.23 154.656C368.922 154.301 368.581 154.124 368.208 154.124C367.993 154.124 367.816 154.203 367.676 154.362C367.536 154.511 367.466 154.735 367.466 155.034ZM372.295 159.234C372.295 159.85 372.467 160.354 372.813 160.746C373.167 161.129 373.615 161.32 374.157 161.32C374.707 161.32 375.155 161.129 375.501 160.746C375.855 160.354 376.033 159.85 376.033 159.234C376.033 158.618 375.855 158.114 375.501 157.722C375.155 157.33 374.707 157.134 374.157 157.134C373.615 157.134 373.167 157.33 372.813 157.722C372.467 158.114 372.295 158.618 372.295 159.234ZM378.147 159.234C378.147 160.326 377.769 161.245 377.013 161.992C376.257 162.739 375.305 163.112 374.157 163.112C373.018 163.112 372.071 162.739 371.315 161.992C370.559 161.245 370.181 160.326 370.181 159.234C370.181 158.142 370.559 157.223 371.315 156.476C372.071 155.72 373.018 155.342 374.157 155.342C375.305 155.342 376.257 155.72 377.013 156.476C377.769 157.223 378.147 158.142 378.147 159.234ZM383.869 157.316C383.243 157.316 382.777 157.54 382.469 157.988C382.161 158.427 382.007 159.01 382.007 159.738V163H379.907V155.468H382.007V156.462C382.277 156.154 382.613 155.893 383.015 155.678C383.425 155.463 383.841 155.351 384.261 155.342L384.275 157.316H383.869ZM392.26 155.034V155.538H394.08V157.05H392.26V163H390.146V157.05H389.264V155.538H390.146V155.076C390.146 154.255 390.393 153.606 390.888 153.13C391.392 152.645 392.012 152.402 392.75 152.402C393.496 152.402 394.173 152.682 394.78 153.242L394.024 154.656C393.716 154.301 393.375 154.124 393.002 154.124C392.787 154.124 392.61 154.203 392.47 154.362C392.33 154.511 392.26 154.735 392.26 155.034ZM399.549 157.316C398.923 157.316 398.457 157.54 398.149 157.988C397.841 158.427 397.687 159.01 397.687 159.738V163H395.587V155.468H397.687V156.462C397.957 156.154 398.293 155.893 398.695 155.678C399.105 155.463 399.521 155.351 399.941 155.342L399.955 157.316H399.549ZM408.066 161.908C407.217 162.711 406.218 163.112 405.07 163.112C403.932 163.112 402.989 162.762 402.242 162.062C401.496 161.353 401.122 160.405 401.122 159.22C401.122 158.035 401.5 157.092 402.256 156.392C403.022 155.692 403.922 155.342 404.958 155.342C405.994 155.342 406.872 155.655 407.59 156.28C408.318 156.905 408.682 157.764 408.682 158.856V159.976H403.194C403.26 160.387 403.474 160.723 403.838 160.984C404.202 161.245 404.613 161.376 405.07 161.376C405.808 161.376 406.414 161.129 406.89 160.634L408.066 161.908ZM406.554 158.478C406.508 158.03 406.34 157.685 406.05 157.442C405.761 157.199 405.406 157.078 404.986 157.078C404.576 157.078 404.198 157.204 403.852 157.456C403.507 157.708 403.306 158.049 403.25 158.478H406.554ZM416.921 161.908C416.071 162.711 415.073 163.112 413.925 163.112C412.786 163.112 411.843 162.762 411.097 162.062C410.35 161.353 409.977 160.405 409.977 159.22C409.977 158.035 410.355 157.092 411.111 156.392C411.876 155.692 412.777 155.342 413.813 155.342C414.849 155.342 415.726 155.655 416.445 156.28C417.173 156.905 417.537 157.764 417.537 158.856V159.976H412.049C412.114 160.387 412.329 160.723 412.693 160.984C413.057 161.245 413.467 161.376 413.925 161.376C414.662 161.376 415.269 161.129 415.745 160.634L416.921 161.908ZM415.409 158.478C415.362 158.03 415.194 157.685 414.905 157.442C414.615 157.199 414.261 157.078 413.841 157.078C413.43 157.078 413.052 157.204 412.707 157.456C412.361 157.708 412.161 158.049 412.105 158.478H415.409Z" fill="white"/>
<defs>
<clipPath id="clip0_1479_17273">
<rect width="116" height="57" fill="white" transform="translate(296.5 50)"/>
</clipPath>
</defs>
</svg>
