<svg width="510" height="243" viewBox="0 0 510 243" fill="none" xmlns="http://www.w3.org/2000/svg">
<rect x="1" y="0.5" width="508" height="242" rx="9.5" fill="white"/>
<rect x="1" y="0.5" width="508" height="242" rx="9.5" stroke="#23A6F0"/>
<path d="M57.964 61.128C57.34 61.128 56.844 61.28 56.476 61.584C56.124 61.872 55.948 62.264 55.948 62.76C55.948 63.24 56.164 63.624 56.596 63.912C57.044 64.2 58.06 64.544 59.644 64.944C61.244 65.328 62.484 65.912 63.364 66.696C64.244 67.48 64.684 68.624 64.684 70.128C64.684 71.632 64.116 72.856 62.98 73.8C61.86 74.728 60.38 75.192 58.54 75.192C55.884 75.192 53.492 74.208 51.364 72.24L53.596 69.504C55.404 71.088 57.076 71.88 58.612 71.88C59.3 71.88 59.836 71.736 60.22 71.448C60.62 71.144 60.82 70.744 60.82 70.248C60.82 69.736 60.612 69.336 60.196 69.048C59.78 68.744 58.956 68.44 57.724 68.136C55.772 67.672 54.34 67.072 53.428 66.336C52.532 65.584 52.084 64.416 52.084 62.832C52.084 61.232 52.652 60 53.788 59.136C54.94 58.272 56.372 57.84 58.084 57.84C59.204 57.84 60.324 58.032 61.444 58.416C62.564 58.8 63.54 59.344 64.372 60.048L62.476 62.784C61.02 61.68 59.516 61.128 57.964 61.128ZM74.9321 61.464V75H71.1881V61.464H66.4361V58.224H79.6841V61.464H74.9321ZM93.2629 75L91.7029 71.376H84.6709L83.1109 75H79.1269L86.3749 58.224H89.9989L97.2469 75H93.2629ZM88.1989 63.216L86.0869 68.088H90.2869L88.1989 63.216ZM111.03 58.224H114.774V75H111.03L103.038 64.488V75H99.2937V58.224H102.798L111.03 69.024V58.224ZM124.939 58.224C127.931 58.224 130.227 58.96 131.827 60.432C133.427 61.888 134.227 63.92 134.227 66.528C134.227 69.136 133.443 71.2 131.875 72.72C130.323 74.24 127.947 75 124.747 75H119.011V58.224H124.939ZM125.131 71.688C126.843 71.688 128.155 71.256 129.067 70.392C129.995 69.528 130.459 68.272 130.459 66.624C130.459 64.976 129.995 63.712 129.067 62.832C128.155 61.936 126.747 61.488 124.843 61.488H122.755V71.688H125.131ZM149.039 75L147.479 71.376H140.447L138.887 75H134.903L142.151 58.224H145.775L153.023 75H149.039ZM143.975 63.216L141.863 68.088H146.063L143.975 63.216ZM168.678 63.792C168.678 66.48 167.614 68.216 165.486 69L169.734 75H165.126L161.406 69.648H158.814V75H155.07V58.224H161.43C164.038 58.224 165.894 58.664 166.998 59.544C168.118 60.424 168.678 61.84 168.678 63.792ZM161.55 66.408C162.83 66.408 163.702 66.2 164.166 65.784C164.63 65.368 164.862 64.712 164.862 63.816C164.862 62.904 164.622 62.28 164.142 61.944C163.662 61.608 162.822 61.44 161.622 61.44H158.814V66.408H161.55ZM178.536 58.224C181.528 58.224 183.824 58.96 185.424 60.432C187.024 61.888 187.824 63.92 187.824 66.528C187.824 69.136 187.04 71.2 185.472 72.72C183.92 74.24 181.544 75 178.344 75H172.608V58.224H178.536ZM178.728 71.688C180.44 71.688 181.752 71.256 182.664 70.392C183.592 69.528 184.056 68.272 184.056 66.624C184.056 64.976 183.592 63.712 182.664 62.832C181.752 61.936 180.344 61.488 178.44 61.488H176.352V71.688H178.728Z" fill="#23A6F0"/>
<path d="M62.54 114L62.526 104.2H61.028L57.206 110.696L53.314 104.2H51.816V114H53.552V107.588L56.772 112.88H57.584L60.804 107.504L60.818 114H62.54ZM68.5791 114.098C70.9031 114.098 72.5691 112.502 72.5691 110.262C72.5691 108.022 70.9031 106.44 68.5791 106.44C66.2831 106.44 64.6031 108.022 64.6031 110.262C64.6031 112.502 66.2831 114.098 68.5791 114.098ZM68.5791 112.6C67.3191 112.6 66.3671 111.69 66.3671 110.262C66.3671 108.834 67.3191 107.924 68.5791 107.924C69.8531 107.924 70.8051 108.834 70.8051 110.262C70.8051 111.69 69.8531 112.6 68.5791 112.6ZM76.7525 114.098C78.8525 114.098 80.1405 113.188 80.1405 111.788C80.1405 108.862 75.5205 110.206 75.5205 108.694C75.5205 108.204 76.0245 107.854 77.0885 107.854C77.8025 107.854 78.5165 107.994 79.2305 108.414L79.9025 107.084C79.2305 106.678 78.0965 106.44 77.1025 106.44C75.0865 106.44 73.8125 107.364 73.8125 108.778C73.8125 111.76 78.4325 110.416 78.4325 111.844C78.4325 112.362 77.9705 112.67 76.8645 112.67C75.9265 112.67 74.9185 112.362 74.2605 111.928L73.5885 113.258C74.2605 113.734 75.5065 114.098 76.7525 114.098ZM85.8516 112.348C85.5856 112.558 85.2356 112.656 84.8716 112.656C84.1996 112.656 83.8356 112.264 83.8356 111.536V107.98H85.8376V106.58H83.8356V104.872H82.0856V106.58H80.8536V107.98H82.0856V111.578C82.0856 113.23 83.0236 114.098 84.6616 114.098C85.2916 114.098 85.9216 113.93 86.3416 113.594L85.8516 112.348ZM95.4803 114.098C96.9363 114.098 98.0983 113.468 98.6723 112.348L97.3283 111.564C96.8803 112.278 96.2083 112.6 95.4663 112.6C94.1783 112.6 93.1983 111.718 93.1983 110.262C93.1983 108.82 94.1783 107.924 95.4663 107.924C96.2083 107.924 96.8803 108.246 97.3283 108.96L98.6723 108.176C98.0983 107.042 96.9363 106.44 95.4803 106.44C93.1143 106.44 91.4343 108.022 91.4343 110.262C91.4343 112.502 93.1143 114.098 95.4803 114.098ZM103.241 106.44C102.037 106.44 100.875 106.748 100.077 107.364L100.763 108.638C101.323 108.176 102.191 107.896 103.031 107.896C104.277 107.896 104.893 108.498 104.893 109.52V109.632H102.961C100.693 109.632 99.8531 110.612 99.8531 111.858C99.8531 113.16 100.931 114.098 102.639 114.098C103.759 114.098 104.571 113.734 104.991 113.09V114H106.643V109.618C106.643 107.462 105.397 106.44 103.241 106.44ZM103.003 112.824C102.107 112.824 101.575 112.418 101.575 111.788C101.575 111.242 101.897 110.794 103.087 110.794H104.893V111.662C104.599 112.432 103.857 112.824 103.003 112.824ZM109.089 114H110.839V103.612H109.089V114ZM120.364 110.304C120.364 107.966 118.768 106.44 116.584 106.44C114.358 106.44 112.72 108.036 112.72 110.262C112.72 112.488 114.344 114.098 116.85 114.098C118.138 114.098 119.188 113.678 119.86 112.88L118.922 111.802C118.39 112.348 117.732 112.614 116.892 112.614C115.59 112.614 114.68 111.914 114.47 110.822H120.336C120.35 110.654 120.364 110.444 120.364 110.304ZM116.584 107.84C117.732 107.84 118.558 108.582 118.698 109.66H114.456C114.624 108.568 115.45 107.84 116.584 107.84ZM126.487 106.44C125.395 106.44 124.485 106.804 123.911 107.49V106.524H122.245V114H123.995V110.22C123.995 108.722 124.835 107.966 126.081 107.966C127.201 107.966 127.859 108.61 127.859 109.94V114H129.609V109.716C129.609 107.462 128.279 106.44 126.487 106.44ZM137.669 103.612V107.448C137.081 106.762 136.227 106.44 135.261 106.44C133.091 106.44 131.481 107.938 131.481 110.262C131.481 112.586 133.091 114.098 135.261 114.098C136.283 114.098 137.151 113.748 137.739 113.034V114H139.419V103.612H137.669ZM135.471 112.6C134.211 112.6 133.245 111.69 133.245 110.262C133.245 108.834 134.211 107.924 135.471 107.924C136.731 107.924 137.697 108.834 137.697 110.262C137.697 111.69 136.731 112.6 135.471 112.6ZM144.765 106.44C143.561 106.44 142.399 106.748 141.601 107.364L142.287 108.638C142.847 108.176 143.715 107.896 144.555 107.896C145.801 107.896 146.417 108.498 146.417 109.52V109.632H144.485C142.217 109.632 141.377 110.612 141.377 111.858C141.377 113.16 142.455 114.098 144.163 114.098C145.283 114.098 146.095 113.734 146.515 113.09V114H148.167V109.618C148.167 107.462 146.921 106.44 144.765 106.44ZM144.527 112.824C143.631 112.824 143.099 112.418 143.099 111.788C143.099 111.242 143.421 110.794 144.611 110.794H146.417V111.662C146.123 112.432 145.381 112.824 144.527 112.824ZM152.278 107.616V106.524H150.612V114H152.362V110.374C152.362 108.848 153.202 108.064 154.532 108.064C154.658 108.064 154.784 108.078 154.938 108.106V106.44C153.692 106.44 152.782 106.832 152.278 107.616ZM158.96 114.098C161.06 114.098 162.348 113.188 162.348 111.788C162.348 108.862 157.728 110.206 157.728 108.694C157.728 108.204 158.232 107.854 159.296 107.854C160.01 107.854 160.724 107.994 161.438 108.414L162.11 107.084C161.438 106.678 160.304 106.44 159.31 106.44C157.294 106.44 156.02 107.364 156.02 108.778C156.02 111.76 160.64 110.416 160.64 111.844C160.64 112.362 160.178 112.67 159.072 112.67C158.134 112.67 157.126 112.362 156.468 111.928L155.796 113.258C156.468 113.734 157.714 114.098 158.96 114.098ZM170.981 106.44C169.777 106.44 168.615 106.748 167.817 107.364L168.503 108.638C169.063 108.176 169.931 107.896 170.771 107.896C172.017 107.896 172.633 108.498 172.633 109.52V109.632H170.701C168.433 109.632 167.593 110.612 167.593 111.858C167.593 113.16 168.671 114.098 170.379 114.098C171.499 114.098 172.311 113.734 172.731 113.09V114H174.383V109.618C174.383 107.462 173.137 106.44 170.981 106.44ZM170.743 112.824C169.847 112.824 169.315 112.418 169.315 111.788C169.315 111.242 169.637 110.794 170.827 110.794H172.633V111.662C172.339 112.432 171.597 112.824 170.743 112.824ZM178.494 107.616V106.524H176.828V114H178.578V110.374C178.578 108.848 179.418 108.064 180.748 108.064C180.874 108.064 181 108.078 181.154 108.106V106.44C179.908 106.44 178.998 106.832 178.494 107.616ZM189.799 110.304C189.799 107.966 188.203 106.44 186.019 106.44C183.793 106.44 182.155 108.036 182.155 110.262C182.155 112.488 183.779 114.098 186.285 114.098C187.573 114.098 188.623 113.678 189.295 112.88L188.357 111.802C187.825 112.348 187.167 112.614 186.327 112.614C185.025 112.614 184.115 111.914 183.905 110.822H189.771C189.785 110.654 189.799 110.444 189.799 110.304ZM186.019 107.84C187.167 107.84 187.993 108.582 188.133 109.66H183.891C184.059 108.568 184.885 107.84 186.019 107.84ZM201.321 103.612V107.448C200.733 106.762 199.879 106.44 198.913 106.44C196.743 106.44 195.133 107.938 195.133 110.262C195.133 112.586 196.743 114.098 198.913 114.098C199.935 114.098 200.803 113.748 201.391 113.034V114H203.071V103.612H201.321ZM199.123 112.6C197.863 112.6 196.897 111.69 196.897 110.262C196.897 108.834 197.863 107.924 199.123 107.924C200.383 107.924 201.349 108.834 201.349 110.262C201.349 111.69 200.383 112.6 199.123 112.6ZM212.588 110.304C212.588 107.966 210.992 106.44 208.808 106.44C206.582 106.44 204.944 108.036 204.944 110.262C204.944 112.488 206.568 114.098 209.074 114.098C210.362 114.098 211.412 113.678 212.084 112.88L211.146 111.802C210.614 112.348 209.956 112.614 209.116 112.614C207.814 112.614 206.904 111.914 206.694 110.822H212.56C212.574 110.654 212.588 110.444 212.588 110.304ZM208.808 107.84C209.956 107.84 210.782 108.582 210.922 109.66H206.68C206.848 108.568 207.674 107.84 208.808 107.84ZM216.779 114.098C218.879 114.098 220.167 113.188 220.167 111.788C220.167 108.862 215.547 110.206 215.547 108.694C215.547 108.204 216.051 107.854 217.115 107.854C217.829 107.854 218.543 107.994 219.257 108.414L219.929 107.084C219.257 106.678 218.123 106.44 217.129 106.44C215.113 106.44 213.839 107.364 213.839 108.778C213.839 111.76 218.459 110.416 218.459 111.844C218.459 112.362 217.997 112.67 216.891 112.67C215.953 112.67 214.945 112.362 214.287 111.928L213.615 113.258C214.287 113.734 215.533 114.098 216.779 114.098ZM222.756 105.292C223.414 105.292 223.876 104.816 223.876 104.2C223.876 103.626 223.4 103.192 222.756 103.192C222.112 103.192 221.636 103.654 221.636 104.242C221.636 104.83 222.112 105.292 222.756 105.292ZM221.874 114H223.624V106.524H221.874V114ZM231.875 106.524V107.518C231.259 106.776 230.335 106.44 229.285 106.44C227.143 106.44 225.505 107.868 225.505 110.038C225.505 112.208 227.143 113.664 229.285 113.664C230.293 113.664 231.175 113.342 231.791 112.67V113.062C231.791 114.574 231.063 115.33 229.411 115.33C228.375 115.33 227.311 114.98 226.653 114.434L225.869 115.75C226.723 116.45 228.109 116.814 229.509 116.814C232.127 116.814 233.541 115.582 233.541 112.866V106.524H231.875ZM229.551 112.18C228.221 112.18 227.269 111.312 227.269 110.038C227.269 108.778 228.221 107.924 229.551 107.924C230.867 107.924 231.819 108.778 231.819 110.038C231.819 111.312 230.867 112.18 229.551 112.18ZM240.284 106.44C239.192 106.44 238.282 106.804 237.708 107.49V106.524H236.042V114H237.792V110.22C237.792 108.722 238.632 107.966 239.878 107.966C240.998 107.966 241.656 108.61 241.656 109.94V114H243.406V109.716C243.406 107.462 242.076 106.44 240.284 106.44ZM252.922 110.304C252.922 107.966 251.326 106.44 249.142 106.44C246.916 106.44 245.278 108.036 245.278 110.262C245.278 112.488 246.902 114.098 249.408 114.098C250.696 114.098 251.746 113.678 252.418 112.88L251.48 111.802C250.948 112.348 250.29 112.614 249.45 112.614C248.148 112.614 247.238 111.914 247.028 110.822H252.894C252.908 110.654 252.922 110.444 252.922 110.304ZM249.142 107.84C250.29 107.84 251.116 108.582 251.256 109.66H247.014C247.182 108.568 248.008 107.84 249.142 107.84ZM260.375 103.612V107.448C259.787 106.762 258.933 106.44 257.967 106.44C255.797 106.44 254.187 107.938 254.187 110.262C254.187 112.586 255.797 114.098 257.967 114.098C258.989 114.098 259.857 113.748 260.445 113.034V114H262.125V103.612H260.375ZM258.177 112.6C256.917 112.6 255.951 111.69 255.951 110.262C255.951 108.834 256.917 107.924 258.177 107.924C259.437 107.924 260.403 108.834 260.403 110.262C260.403 111.69 259.437 112.6 258.177 112.6ZM54.686 128.928C55.05 128.928 55.386 129.054 55.652 129.236L56.142 127.92C55.75 127.64 55.162 127.514 54.56 127.514C52.824 127.514 51.886 128.536 51.886 130.104V130.58H50.654V131.98H51.886V138H53.636V131.98H55.638V130.58H53.58V130.132C53.58 129.334 53.958 128.928 54.686 128.928ZM60.2666 138.098C62.5906 138.098 64.2566 136.502 64.2566 134.262C64.2566 132.022 62.5906 130.44 60.2666 130.44C57.9706 130.44 56.2906 132.022 56.2906 134.262C56.2906 136.502 57.9706 138.098 60.2666 138.098ZM60.2666 136.6C59.0066 136.6 58.0546 135.69 58.0546 134.262C58.0546 132.834 59.0066 131.924 60.2666 131.924C61.5406 131.924 62.4926 132.834 62.4926 134.262C62.4926 135.69 61.5406 136.6 60.2666 136.6ZM67.796 131.616V130.524H66.13V138H67.88V134.374C67.88 132.848 68.72 132.064 70.05 132.064C70.176 132.064 70.302 132.078 70.456 132.106V130.44C69.21 130.44 68.3 130.832 67.796 131.616ZM80.2821 136.348C80.0161 136.558 79.6661 136.656 79.3021 136.656C78.6301 136.656 78.2661 136.264 78.2661 135.536V131.98H80.2681V130.58H78.2661V128.872H76.5161V130.58H75.2841V131.98H76.5161V135.578C76.5161 137.23 77.4541 138.098 79.0921 138.098C79.7221 138.098 80.3521 137.93 80.7721 137.594L80.2821 136.348ZM89.1936 134.304C89.1936 131.966 87.5976 130.44 85.4136 130.44C83.1876 130.44 81.5496 132.036 81.5496 134.262C81.5496 136.488 83.1736 138.098 85.6796 138.098C86.9676 138.098 88.0176 137.678 88.6896 136.88L87.7516 135.802C87.2196 136.348 86.5616 136.614 85.7216 136.614C84.4196 136.614 83.5096 135.914 83.2996 134.822H89.1656C89.1796 134.654 89.1936 134.444 89.1936 134.304ZM85.4136 131.84C86.5616 131.84 87.3876 132.582 87.5276 133.66H83.2856C83.4536 132.568 84.2796 131.84 85.4136 131.84ZM93.7255 130.44C92.5215 130.44 91.3595 130.748 90.5615 131.364L91.2475 132.638C91.8075 132.176 92.6755 131.896 93.5155 131.896C94.7615 131.896 95.3775 132.498 95.3775 133.52V133.632H93.4455C91.1775 133.632 90.3375 134.612 90.3375 135.858C90.3375 137.16 91.4155 138.098 93.1235 138.098C94.2435 138.098 95.0555 137.734 95.4755 137.09V138H97.1275V133.618C97.1275 131.462 95.8815 130.44 93.7255 130.44ZM93.4875 136.824C92.5915 136.824 92.0595 136.418 92.0595 135.788C92.0595 135.242 92.3815 134.794 93.5715 134.794H95.3775V135.662C95.0835 136.432 94.3415 136.824 93.4875 136.824ZM109.009 130.44C107.819 130.44 106.811 130.916 106.209 131.686C105.691 130.846 104.781 130.44 103.689 130.44C102.667 130.44 101.799 130.804 101.239 131.476V130.524H99.5734V138H101.323V134.206C101.323 132.722 102.107 131.966 103.269 131.966C104.333 131.966 104.949 132.61 104.949 133.94V138H106.699V134.206C106.699 132.722 107.497 131.966 108.645 131.966C109.709 131.966 110.325 132.61 110.325 133.94V138H112.075V133.716C112.075 131.462 110.815 130.44 109.009 130.44ZM116.822 138.098C118.922 138.098 120.21 137.188 120.21 135.788C120.21 132.862 115.59 134.206 115.59 132.694C115.59 132.204 116.094 131.854 117.158 131.854C117.872 131.854 118.586 131.994 119.3 132.414L119.972 131.084C119.3 130.678 118.166 130.44 117.172 130.44C115.156 130.44 113.882 131.364 113.882 132.778C113.882 135.76 118.502 134.416 118.502 135.844C118.502 136.362 118.04 136.67 116.934 136.67C115.996 136.67 114.988 136.362 114.33 135.928L113.658 137.258C114.33 137.734 115.576 138.098 116.822 138.098ZM122.477 138.098C123.107 138.098 123.625 137.608 123.625 136.936C123.625 136.236 123.107 135.774 122.477 135.774C121.847 135.774 121.329 136.236 121.329 136.936C121.329 137.608 121.847 138.098 122.477 138.098ZM132.81 138.14C135.498 138.14 136.772 136.796 136.772 135.228C136.772 131.63 130.962 132.988 130.962 130.902C130.962 130.16 131.578 129.572 133.09 129.572C133.944 129.572 134.91 129.824 135.792 130.342L136.366 128.928C135.512 128.368 134.28 128.06 133.104 128.06C130.416 128.06 129.156 129.404 129.156 130.986C129.156 134.626 134.98 133.24 134.98 135.354C134.98 136.082 134.336 136.628 132.81 136.628C131.606 136.628 130.36 136.18 129.576 135.55L128.946 136.964C129.758 137.664 131.284 138.14 132.81 138.14ZM138.609 138H140.359V127.612H138.609V138ZM145.711 130.44C144.507 130.44 143.345 130.748 142.547 131.364L143.233 132.638C143.793 132.176 144.661 131.896 145.501 131.896C146.747 131.896 147.363 132.498 147.363 133.52V133.632H145.431C143.163 133.632 142.323 134.612 142.323 135.858C142.323 137.16 143.401 138.098 145.109 138.098C146.229 138.098 147.041 137.734 147.461 137.09V138H149.113V133.618C149.113 131.462 147.867 130.44 145.711 130.44ZM145.473 136.824C144.577 136.824 144.045 136.418 144.045 135.788C144.045 135.242 144.367 134.794 145.557 134.794H147.363V135.662C147.069 136.432 146.327 136.824 145.473 136.824ZM155.563 136.348C155.297 136.558 154.947 136.656 154.583 136.656C153.911 136.656 153.547 136.264 153.547 135.536V131.98H155.549V130.58H153.547V128.872H151.797V130.58H150.565V131.98H151.797V135.578C151.797 137.23 152.735 138.098 154.373 138.098C155.003 138.098 155.633 137.93 156.053 137.594L155.563 136.348ZM164.475 134.304C164.475 131.966 162.879 130.44 160.695 130.44C158.469 130.44 156.831 132.036 156.831 134.262C156.831 136.488 158.455 138.098 160.961 138.098C162.249 138.098 163.299 137.678 163.971 136.88L163.033 135.802C162.501 136.348 161.843 136.614 161.003 136.614C159.701 136.614 158.791 135.914 158.581 134.822H164.447C164.461 134.654 164.475 134.444 164.475 134.304ZM160.695 131.84C161.843 131.84 162.669 132.582 162.809 133.66H158.567C158.735 132.568 159.561 131.84 160.695 131.84ZM171.307 129.292C171.965 129.292 172.427 128.816 172.427 128.2C172.427 127.626 171.951 127.192 171.307 127.192C170.663 127.192 170.187 127.654 170.187 128.242C170.187 128.83 170.663 129.292 171.307 129.292ZM170.425 138H172.175V130.524H170.425V138ZM176.982 138.098C179.082 138.098 180.37 137.188 180.37 135.788C180.37 132.862 175.75 134.206 175.75 132.694C175.75 132.204 176.254 131.854 177.318 131.854C178.032 131.854 178.746 131.994 179.46 132.414L180.132 131.084C179.46 130.678 178.326 130.44 177.332 130.44C175.316 130.44 174.042 131.364 174.042 132.778C174.042 135.76 178.662 134.416 178.662 135.844C178.662 136.362 178.2 136.67 177.094 136.67C176.156 136.67 175.148 136.362 174.49 135.928L173.818 137.258C174.49 137.734 175.736 138.098 176.982 138.098ZM191.718 127.612V131.448C191.13 130.762 190.276 130.44 189.31 130.44C187.14 130.44 185.53 131.938 185.53 134.262C185.53 136.586 187.14 138.098 189.31 138.098C190.332 138.098 191.2 137.748 191.788 137.034V138H193.468V127.612H191.718ZM189.52 136.6C188.26 136.6 187.294 135.69 187.294 134.262C187.294 132.834 188.26 131.924 189.52 131.924C190.78 131.924 191.746 132.834 191.746 134.262C191.746 135.69 190.78 136.6 189.52 136.6ZM202.985 134.304C202.985 131.966 201.389 130.44 199.205 130.44C196.979 130.44 195.341 132.036 195.341 134.262C195.341 136.488 196.965 138.098 199.471 138.098C200.759 138.098 201.809 137.678 202.481 136.88L201.543 135.802C201.011 136.348 200.353 136.614 199.513 136.614C198.211 136.614 197.301 135.914 197.091 134.822H202.957C202.971 134.654 202.985 134.444 202.985 134.304ZM199.205 131.84C200.353 131.84 201.179 132.582 201.319 133.66H197.077C197.245 132.568 198.071 131.84 199.205 131.84ZM207.176 138.098C209.276 138.098 210.564 137.188 210.564 135.788C210.564 132.862 205.944 134.206 205.944 132.694C205.944 132.204 206.448 131.854 207.512 131.854C208.226 131.854 208.94 131.994 209.654 132.414L210.326 131.084C209.654 130.678 208.52 130.44 207.526 130.44C205.51 130.44 204.236 131.364 204.236 132.778C204.236 135.76 208.856 134.416 208.856 135.844C208.856 136.362 208.394 136.67 207.288 136.67C206.35 136.67 205.342 136.362 204.684 135.928L204.012 137.258C204.684 137.734 205.93 138.098 207.176 138.098ZM213.153 129.292C213.811 129.292 214.273 128.816 214.273 128.2C214.273 127.626 213.797 127.192 213.153 127.192C212.509 127.192 212.033 127.654 212.033 128.242C212.033 128.83 212.509 129.292 213.153 129.292ZM212.271 138H214.021V130.524H212.271V138ZM222.272 130.524V131.518C221.656 130.776 220.732 130.44 219.682 130.44C217.54 130.44 215.902 131.868 215.902 134.038C215.902 136.208 217.54 137.664 219.682 137.664C220.69 137.664 221.572 137.342 222.188 136.67V137.062C222.188 138.574 221.46 139.33 219.808 139.33C218.772 139.33 217.708 138.98 217.05 138.434L216.266 139.75C217.12 140.45 218.506 140.814 219.906 140.814C222.524 140.814 223.938 139.582 223.938 136.866V130.524H222.272ZM219.948 136.18C218.618 136.18 217.666 135.312 217.666 134.038C217.666 132.778 218.618 131.924 219.948 131.924C221.264 131.924 222.216 132.778 222.216 134.038C222.216 135.312 221.264 136.18 219.948 136.18ZM230.681 130.44C229.589 130.44 228.679 130.804 228.105 131.49V130.524H226.439V138H228.189V134.22C228.189 132.722 229.029 131.966 230.275 131.966C231.395 131.966 232.053 132.61 232.053 133.94V138H233.803V133.716C233.803 131.462 232.473 130.44 230.681 130.44ZM243.319 134.304C243.319 131.966 241.723 130.44 239.539 130.44C237.313 130.44 235.675 132.036 235.675 134.262C235.675 136.488 237.299 138.098 239.805 138.098C241.093 138.098 242.143 137.678 242.815 136.88L241.877 135.802C241.345 136.348 240.687 136.614 239.847 136.614C238.545 136.614 237.635 135.914 237.425 134.822H243.291C243.305 134.654 243.319 134.444 243.319 134.304ZM239.539 131.84C240.687 131.84 241.513 132.582 241.653 133.66H237.411C237.579 132.568 238.405 131.84 239.539 131.84ZM250.772 127.612V131.448C250.184 130.762 249.33 130.44 248.364 130.44C246.194 130.44 244.584 131.938 244.584 134.262C244.584 136.586 246.194 138.098 248.364 138.098C249.386 138.098 250.254 137.748 250.842 137.034V138H252.522V127.612H250.772ZM248.574 136.6C247.314 136.6 246.348 135.69 246.348 134.262C246.348 132.834 247.314 131.924 248.574 131.924C249.834 131.924 250.8 132.834 250.8 134.262C250.8 135.69 249.834 136.6 248.574 136.6ZM54.686 152.928C55.05 152.928 55.386 153.054 55.652 153.236L56.142 151.92C55.75 151.64 55.162 151.514 54.56 151.514C52.824 151.514 51.886 152.536 51.886 154.104V154.58H50.654V155.98H51.886V162H53.636V155.98H55.638V154.58H53.58V154.132C53.58 153.334 53.958 152.928 54.686 152.928ZM60.2666 162.098C62.5906 162.098 64.2566 160.502 64.2566 158.262C64.2566 156.022 62.5906 154.44 60.2666 154.44C57.9706 154.44 56.2906 156.022 56.2906 158.262C56.2906 160.502 57.9706 162.098 60.2666 162.098ZM60.2666 160.6C59.0066 160.6 58.0546 159.69 58.0546 158.262C58.0546 156.834 59.0066 155.924 60.2666 155.924C61.5406 155.924 62.4926 156.834 62.4926 158.262C62.4926 159.69 61.5406 160.6 60.2666 160.6ZM67.796 155.616V154.524H66.13V162H67.88V158.374C67.88 156.848 68.72 156.064 70.05 156.064C70.176 156.064 70.302 156.078 70.456 156.106V154.44C69.21 154.44 68.3 154.832 67.796 155.616ZM79.3161 152.928C79.6801 152.928 80.0161 153.054 80.2821 153.236L80.7721 151.92C80.3801 151.64 79.7921 151.514 79.1901 151.514C77.4541 151.514 76.5161 152.536 76.5161 154.104V154.58H75.2841V155.98H76.5161V162H78.2661V155.98H80.2681V154.58H78.2101V154.132C78.2101 153.334 78.5881 152.928 79.3161 152.928ZM84.4331 155.616V154.524H82.7671V162H84.5171V158.374C84.5171 156.848 85.3571 156.064 86.6871 156.064C86.8131 156.064 86.9391 156.078 87.0931 156.106V154.44C85.8471 154.44 84.9371 154.832 84.4331 155.616ZM95.7373 158.304C95.7373 155.966 94.1413 154.44 91.9573 154.44C89.7313 154.44 88.0933 156.036 88.0933 158.262C88.0933 160.488 89.7173 162.098 92.2233 162.098C93.5113 162.098 94.5613 161.678 95.2333 160.88L94.2953 159.802C93.7633 160.348 93.1053 160.614 92.2653 160.614C90.9633 160.614 90.0533 159.914 89.8433 158.822H95.7093C95.7233 158.654 95.7373 158.444 95.7373 158.304ZM91.9573 155.84C93.1053 155.84 93.9313 156.582 94.0713 157.66H89.8293C89.9973 156.568 90.8233 155.84 91.9573 155.84ZM104.646 158.304C104.646 155.966 103.05 154.44 100.866 154.44C98.6403 154.44 97.0023 156.036 97.0023 158.262C97.0023 160.488 98.6263 162.098 101.132 162.098C102.42 162.098 103.47 161.678 104.142 160.88L103.204 159.802C102.672 160.348 102.014 160.614 101.174 160.614C99.8723 160.614 98.9623 159.914 98.7523 158.822H104.618C104.632 158.654 104.646 158.444 104.646 158.304ZM100.866 155.84C102.014 155.84 102.84 156.582 102.98 157.66H98.7383C98.9063 156.568 99.7323 155.84 100.866 155.84ZM106.527 162H108.277V151.612H106.527V162ZM113.63 154.44C112.426 154.44 111.264 154.748 110.466 155.364L111.152 156.638C111.712 156.176 112.58 155.896 113.42 155.896C114.666 155.896 115.282 156.498 115.282 157.52V157.632H113.35C111.082 157.632 110.242 158.612 110.242 159.858C110.242 161.16 111.32 162.098 113.028 162.098C114.148 162.098 114.96 161.734 115.38 161.09V162H117.032V157.618C117.032 155.462 115.786 154.44 113.63 154.44ZM113.392 160.824C112.496 160.824 111.964 160.418 111.964 159.788C111.964 159.242 112.286 158.794 113.476 158.794H115.282V159.662C114.988 160.432 114.246 160.824 113.392 160.824ZM123.72 154.44C122.628 154.44 121.718 154.804 121.144 155.49V154.524H119.478V162H121.228V158.22C121.228 156.722 122.068 155.966 123.314 155.966C124.434 155.966 125.092 156.61 125.092 157.94V162H126.842V157.716C126.842 155.462 125.512 154.44 123.72 154.44ZM132.76 162.098C134.216 162.098 135.378 161.468 135.952 160.348L134.608 159.564C134.16 160.278 133.488 160.6 132.746 160.6C131.458 160.6 130.478 159.718 130.478 158.262C130.478 156.82 131.458 155.924 132.746 155.924C133.488 155.924 134.16 156.246 134.608 156.96L135.952 156.176C135.378 155.042 134.216 154.44 132.76 154.44C130.394 154.44 128.714 156.022 128.714 158.262C128.714 160.502 130.394 162.098 132.76 162.098ZM144.584 158.304C144.584 155.966 142.988 154.44 140.804 154.44C138.578 154.44 136.94 156.036 136.94 158.262C136.94 160.488 138.564 162.098 141.07 162.098C142.358 162.098 143.408 161.678 144.08 160.88L143.142 159.802C142.61 160.348 141.952 160.614 141.112 160.614C139.81 160.614 138.9 159.914 138.69 158.822H144.556C144.57 158.654 144.584 158.444 144.584 158.304ZM140.804 155.84C141.952 155.84 142.778 156.582 142.918 157.66H138.676C138.844 156.568 139.67 155.84 140.804 155.84ZM148.131 155.616V154.524H146.465V162H148.215V158.374C148.215 156.848 149.055 156.064 150.385 156.064C150.511 156.064 150.637 156.078 150.791 156.106V154.44C149.545 154.44 148.635 154.832 148.131 155.616ZM154.813 162.098C156.913 162.098 158.201 161.188 158.201 159.788C158.201 156.862 153.581 158.206 153.581 156.694C153.581 156.204 154.085 155.854 155.149 155.854C155.863 155.854 156.577 155.994 157.291 156.414L157.963 155.084C157.291 154.678 156.157 154.44 155.163 154.44C153.147 154.44 151.873 155.364 151.873 156.778C151.873 159.76 156.493 158.416 156.493 159.844C156.493 160.362 156.031 160.67 154.925 160.67C153.987 160.67 152.979 160.362 152.321 159.928L151.649 161.258C152.321 161.734 153.567 162.098 154.813 162.098ZM174.085 154.524L172.055 160.068L170.039 154.524H168.569L166.511 160.04L164.537 154.524H162.885L165.629 162H167.309L169.269 156.848L171.201 162H172.881L175.639 154.524H174.085ZM181.284 154.44C180.248 154.44 179.366 154.776 178.792 155.392V151.612H177.042V162H178.792V158.22C178.792 156.722 179.632 155.966 180.878 155.966C181.998 155.966 182.656 156.61 182.656 157.94V162H184.406V157.716C184.406 155.462 183.076 154.44 181.284 154.44ZM190.254 162.098C192.578 162.098 194.244 160.502 194.244 158.262C194.244 156.022 192.578 154.44 190.254 154.44C187.958 154.44 186.278 156.022 186.278 158.262C186.278 160.502 187.958 162.098 190.254 162.098ZM190.254 160.6C188.994 160.6 188.042 159.69 188.042 158.262C188.042 156.834 188.994 155.924 190.254 155.924C191.528 155.924 192.48 156.834 192.48 158.262C192.48 159.69 191.528 160.6 190.254 160.6ZM210.295 154.524L208.265 160.068L206.249 154.524H204.779L202.721 160.04L200.747 154.524H199.095L201.839 162H203.519L205.479 156.848L207.411 162H209.091L211.849 154.524H210.295ZM215.876 154.44C214.672 154.44 213.51 154.748 212.712 155.364L213.398 156.638C213.958 156.176 214.826 155.896 215.666 155.896C216.912 155.896 217.528 156.498 217.528 157.52V157.632H215.596C213.328 157.632 212.488 158.612 212.488 159.858C212.488 161.16 213.566 162.098 215.274 162.098C216.394 162.098 217.206 161.734 217.626 161.09V162H219.278V157.618C219.278 155.462 218.032 154.44 215.876 154.44ZM215.638 160.824C214.742 160.824 214.21 160.418 214.21 159.788C214.21 159.242 214.532 158.794 215.722 158.794H217.528V159.662C217.234 160.432 216.492 160.824 215.638 160.824ZM225.966 154.44C224.874 154.44 223.964 154.804 223.39 155.49V154.524H221.724V162H223.474V158.22C223.474 156.722 224.314 155.966 225.56 155.966C226.68 155.966 227.338 156.61 227.338 157.94V162H229.088V157.716C229.088 155.462 227.758 154.44 225.966 154.44ZM235.512 160.348C235.246 160.558 234.896 160.656 234.532 160.656C233.86 160.656 233.496 160.264 233.496 159.536V155.98H235.498V154.58H233.496V152.872H231.746V154.58H230.514V155.98H231.746V159.578C231.746 161.23 232.684 162.098 234.322 162.098C234.952 162.098 235.582 161.93 236.002 161.594L235.512 160.348ZM58.5731 178.44C57.3691 178.44 56.2071 178.748 55.4091 179.364L56.0951 180.638C56.6551 180.176 57.5231 179.896 58.3631 179.896C59.6091 179.896 60.2251 180.498 60.2251 181.52V181.632H58.2931C56.0251 181.632 55.1851 182.612 55.1851 183.858C55.1851 185.16 56.2631 186.098 57.9711 186.098C59.0911 186.098 59.9031 185.734 60.3231 185.09V186H61.9751V181.618C61.9751 179.462 60.7291 178.44 58.5731 178.44ZM58.3351 184.824C57.4391 184.824 56.9071 184.418 56.9071 183.788C56.9071 183.242 57.2291 182.794 58.4191 182.794H60.2251V183.662C59.9311 184.432 59.1891 184.824 58.3351 184.824ZM70.8002 186.098C72.9002 186.098 74.1882 185.188 74.1882 183.788C74.1882 180.862 69.5682 182.206 69.5682 180.694C69.5682 180.204 70.0722 179.854 71.1362 179.854C71.8502 179.854 72.5642 179.994 73.2782 180.414L73.9502 179.084C73.2782 178.678 72.1442 178.44 71.1502 178.44C69.1342 178.44 67.8602 179.364 67.8602 180.778C67.8602 183.76 72.4802 182.416 72.4802 183.844C72.4802 184.362 72.0182 184.67 70.9122 184.67C69.9742 184.67 68.9662 184.362 68.3082 183.928L67.6362 185.258C68.3082 185.734 69.5542 186.098 70.8002 186.098ZM76.7773 177.292C77.4353 177.292 77.8973 176.816 77.8973 176.2C77.8973 175.626 77.4213 175.192 76.7773 175.192C76.1333 175.192 75.6573 175.654 75.6573 176.242C75.6573 176.83 76.1333 177.292 76.7773 177.292ZM75.8953 186H77.6453V178.524H75.8953V186ZM89.5781 178.44C88.3881 178.44 87.3801 178.916 86.7781 179.686C86.2601 178.846 85.3501 178.44 84.2581 178.44C83.2361 178.44 82.3681 178.804 81.8081 179.476V178.524H80.1421V186H81.8921V182.206C81.8921 180.722 82.6761 179.966 83.8381 179.966C84.9021 179.966 85.5181 180.61 85.5181 181.94V186H87.2681V182.206C87.2681 180.722 88.0661 179.966 89.2141 179.966C90.2781 179.966 90.8941 180.61 90.8941 181.94V186H92.6441V181.716C92.6441 179.462 91.3841 178.44 89.5781 178.44ZM99.2244 178.44C98.2024 178.44 97.3344 178.79 96.7464 179.504V178.524H95.0804V188.716H96.8304V185.09C97.4324 185.776 98.2724 186.098 99.2244 186.098C101.408 186.098 103.018 184.586 103.018 182.262C103.018 179.952 101.408 178.44 99.2244 178.44ZM99.0284 184.6C97.7684 184.6 96.8024 183.69 96.8024 182.262C96.8024 180.834 97.7684 179.924 99.0284 179.924C100.288 179.924 101.24 180.834 101.24 182.262C101.24 183.69 100.288 184.6 99.0284 184.6ZM104.878 186H106.628V175.612H104.878V186ZM116.153 182.304C116.153 179.966 114.557 178.44 112.373 178.44C110.147 178.44 108.509 180.036 108.509 182.262C108.509 184.488 110.133 186.098 112.639 186.098C113.927 186.098 114.977 185.678 115.649 184.88L114.711 183.802C114.179 184.348 113.521 184.614 112.681 184.614C111.379 184.614 110.469 183.914 110.259 182.822H116.125C116.139 182.654 116.153 182.444 116.153 182.304ZM112.373 179.84C113.521 179.84 114.347 180.582 114.487 181.66H110.245C110.413 180.568 111.239 179.84 112.373 179.84ZM132.211 178.524L130.181 184.068L128.165 178.524H126.695L124.637 184.04L122.663 178.524H121.011L123.755 186H125.435L127.395 180.848L129.327 186H131.007L133.765 178.524H132.211ZM137.792 178.44C136.588 178.44 135.426 178.748 134.628 179.364L135.314 180.638C135.874 180.176 136.742 179.896 137.582 179.896C138.828 179.896 139.444 180.498 139.444 181.52V181.632H137.512C135.244 181.632 134.404 182.612 134.404 183.858C134.404 185.16 135.482 186.098 137.19 186.098C138.31 186.098 139.122 185.734 139.542 185.09V186H141.194V181.618C141.194 179.462 139.948 178.44 137.792 178.44ZM137.554 184.824C136.658 184.824 136.126 184.418 136.126 183.788C136.126 183.242 136.448 182.794 137.638 182.794H139.444V183.662C139.15 184.432 138.408 184.824 137.554 184.824ZM148.823 178.524L146.457 184.054L144.105 178.524H142.285L145.547 186.028L145.421 186.322C145.085 187.064 144.721 187.358 144.105 187.358C143.629 187.358 143.153 187.162 142.817 186.84L142.117 188.128C142.593 188.562 143.377 188.814 144.119 188.814C145.365 188.814 146.317 188.296 147.003 186.602L150.503 178.524H148.823Z" fill="#737373"/>
<g clip-path="url(#clip0_1479_17287)">
<path d="M298.74 65.04H310.06V93H304.06V70.36H298.74V65.04ZM324.833 87.96C326.566 87.96 327.899 87.3867 328.833 86.24C329.793 85.0667 330.379 83.48 330.593 81.48C328.886 82.6267 327.046 83.2 325.073 83.2C322.459 83.2 320.273 82.3467 318.513 80.64C316.779 78.9067 315.913 76.6267 315.913 73.8C315.913 70.9733 316.846 68.7067 318.713 67C320.606 65.2667 322.979 64.4 325.833 64.4C327.806 64.4 329.513 64.7867 330.953 65.56C332.419 66.3067 333.566 67.36 334.393 68.72C335.966 71.36 336.753 74.6667 336.753 78.64C336.753 81.2 336.433 83.4533 335.793 85.4C335.179 87.32 334.339 88.84 333.273 89.96C331.086 92.2 328.433 93.32 325.313 93.32C324.006 93.32 322.753 93.1333 321.553 92.76C320.353 92.36 319.446 91.9733 318.833 91.6C318.219 91.2 317.513 90.6933 316.713 90.08L319.833 85.68C320.019 85.84 320.259 86.0533 320.553 86.32C320.873 86.56 321.473 86.8933 322.353 87.32C323.233 87.7467 324.059 87.96 324.833 87.96ZM325.673 77.88C326.926 77.88 327.966 77.52 328.793 76.8C329.619 76.08 330.033 75.1333 330.033 73.96C330.033 72.7867 329.633 71.7733 328.833 70.92C328.033 70.0667 327.033 69.64 325.833 69.64C324.633 69.64 323.646 70.0267 322.873 70.8C322.126 71.5467 321.753 72.5067 321.753 73.68C321.753 74.8533 322.099 75.8533 322.793 76.68C323.486 77.48 324.446 77.88 325.673 77.88Z" fill="#23A6F0"/>
<path d="M353.82 73.604V72.436C352.465 72.2227 351.217 71.6093 350.076 70.596L351.564 68.788C352.396 69.5133 353.148 69.9773 353.82 70.18V67.796C352.7 67.508 351.879 67.124 351.356 66.644C350.833 66.1533 350.572 65.4547 350.572 64.548C350.572 63.6307 350.871 62.8787 351.468 62.292C352.065 61.6947 352.849 61.3373 353.82 61.22V60.436H355.516V61.252C356.583 61.4013 357.644 61.844 358.7 62.58L357.388 64.468C356.716 63.988 356.092 63.668 355.516 63.508V65.812C356.668 66.1107 357.516 66.5107 358.06 67.012C358.615 67.5133 358.892 68.2227 358.892 69.14C358.892 70.0573 358.583 70.8147 357.964 71.412C357.356 72.0093 356.54 72.3667 355.516 72.484V73.604H353.82ZM356.332 69.268C356.332 69.044 356.273 68.8573 356.156 68.708C356.039 68.5587 355.825 68.42 355.516 68.292V70.26C356.06 70.0893 356.332 69.7587 356.332 69.268ZM353.82 63.444C353.361 63.604 353.132 63.8973 353.132 64.324C353.132 64.7507 353.361 65.076 353.82 65.3V63.444Z" fill="#23A6F0"/>
<path d="M354.848 85.7H350.816V95.5H352.636V92.672H354.848C357.424 92.672 359.02 91.342 359.02 89.186C359.02 87.016 357.424 85.7 354.848 85.7ZM354.764 91.132H352.636V87.24H354.764C356.36 87.24 357.186 87.954 357.186 89.186C357.186 90.418 356.36 91.132 354.764 91.132ZM367.87 91.804C367.87 89.466 366.274 87.94 364.09 87.94C361.864 87.94 360.226 89.536 360.226 91.762C360.226 93.988 361.85 95.598 364.356 95.598C365.644 95.598 366.694 95.178 367.366 94.38L366.428 93.302C365.896 93.848 365.238 94.114 364.398 94.114C363.096 94.114 362.186 93.414 361.976 92.322H367.842C367.856 92.154 367.87 91.944 367.87 91.804ZM364.09 89.34C365.238 89.34 366.064 90.082 366.204 91.16H361.962C362.13 90.068 362.956 89.34 364.09 89.34ZM371.417 89.116V88.024H369.751V95.5H371.501V91.874C371.501 90.348 372.341 89.564 373.671 89.564C373.797 89.564 373.923 89.578 374.077 89.606V87.94C372.831 87.94 371.921 88.332 371.417 89.116ZM390.791 95.5L390.777 85.7H389.279L385.457 92.196L381.565 85.7H380.067V95.5H381.803V89.088L385.023 94.38H385.835L389.055 89.004L389.069 95.5H390.791ZM396.83 95.598C399.154 95.598 400.82 94.002 400.82 91.762C400.82 89.522 399.154 87.94 396.83 87.94C394.534 87.94 392.854 89.522 392.854 91.762C392.854 94.002 394.534 95.598 396.83 95.598ZM396.83 94.1C395.57 94.1 394.618 93.19 394.618 91.762C394.618 90.334 395.57 89.424 396.83 89.424C398.104 89.424 399.056 90.334 399.056 91.762C399.056 93.19 398.104 94.1 396.83 94.1ZM406.936 87.94C405.844 87.94 404.934 88.304 404.36 88.99V88.024H402.694V95.5H404.444V91.72C404.444 90.222 405.284 89.466 406.53 89.466C407.65 89.466 408.308 90.11 408.308 91.44V95.5H410.058V91.216C410.058 88.962 408.728 87.94 406.936 87.94ZM416.482 93.848C416.216 94.058 415.866 94.156 415.502 94.156C414.83 94.156 414.466 93.764 414.466 93.036V89.48H416.468V88.08H414.466V86.372H412.716V88.08H411.484V89.48H412.716V93.078C412.716 94.73 413.654 95.598 415.292 95.598C415.922 95.598 416.552 95.43 416.972 95.094L416.482 93.848ZM422.853 87.94C421.817 87.94 420.935 88.276 420.361 88.892V85.112H418.611V95.5H420.361V91.72C420.361 90.222 421.201 89.466 422.447 89.466C423.567 89.466 424.225 90.11 424.225 91.44V95.5H425.975V91.216C425.975 88.962 424.645 87.94 422.853 87.94Z" fill="#8EC2F2"/>
</g>
<rect x="297.5" y="132" width="162" height="52" rx="5" fill="#23A6F0"/>
<path d="M343.291 155.104V163H341.107V155.104H338.335V153.214H346.063V155.104H343.291ZM351.617 157.316C350.991 157.316 350.525 157.54 350.217 157.988C349.909 158.427 349.755 159.01 349.755 159.738V163H347.655V155.468H349.755V156.462C350.025 156.154 350.361 155.893 350.763 155.678C351.173 155.463 351.589 155.351 352.009 155.342L352.023 157.316H351.617ZM354.912 165.968C354.175 165.968 353.48 165.669 352.826 165.072L353.778 163.518C354.133 163.863 354.497 164.036 354.87 164.036C355.066 164.036 355.234 163.938 355.374 163.742C355.514 163.555 355.584 163.355 355.584 163.14C355.584 162.925 354.614 160.368 352.672 155.468H354.912L356.746 160.158L358.58 155.468H360.82L357.32 164.344C357.115 164.857 356.793 165.254 356.354 165.534C355.925 165.823 355.444 165.968 354.912 165.968ZM368.466 155.034V155.538H370.286V157.05H368.466V163H366.352V157.05H365.47V155.538H366.352V155.076C366.352 154.255 366.599 153.606 367.094 153.13C367.598 152.645 368.218 152.402 368.956 152.402C369.702 152.402 370.379 152.682 370.986 153.242L370.23 154.656C369.922 154.301 369.581 154.124 369.208 154.124C368.993 154.124 368.816 154.203 368.676 154.362C368.536 154.511 368.466 154.735 368.466 155.034ZM373.295 159.234C373.295 159.85 373.467 160.354 373.813 160.746C374.167 161.129 374.615 161.32 375.157 161.32C375.707 161.32 376.155 161.129 376.501 160.746C376.855 160.354 377.033 159.85 377.033 159.234C377.033 158.618 376.855 158.114 376.501 157.722C376.155 157.33 375.707 157.134 375.157 157.134C374.615 157.134 374.167 157.33 373.813 157.722C373.467 158.114 373.295 158.618 373.295 159.234ZM379.147 159.234C379.147 160.326 378.769 161.245 378.013 161.992C377.257 162.739 376.305 163.112 375.157 163.112C374.018 163.112 373.071 162.739 372.315 161.992C371.559 161.245 371.181 160.326 371.181 159.234C371.181 158.142 371.559 157.223 372.315 156.476C373.071 155.72 374.018 155.342 375.157 155.342C376.305 155.342 377.257 155.72 378.013 156.476C378.769 157.223 379.147 158.142 379.147 159.234ZM384.869 157.316C384.243 157.316 383.777 157.54 383.469 157.988C383.161 158.427 383.007 159.01 383.007 159.738V163H380.907V155.468H383.007V156.462C383.277 156.154 383.613 155.893 384.015 155.678C384.425 155.463 384.841 155.351 385.261 155.342L385.275 157.316H384.869ZM393.26 155.034V155.538H395.08V157.05H393.26V163H391.146V157.05H390.264V155.538H391.146V155.076C391.146 154.255 391.393 153.606 391.888 153.13C392.392 152.645 393.012 152.402 393.75 152.402C394.496 152.402 395.173 152.682 395.78 153.242L395.024 154.656C394.716 154.301 394.375 154.124 394.002 154.124C393.787 154.124 393.61 154.203 393.47 154.362C393.33 154.511 393.26 154.735 393.26 155.034ZM400.549 157.316C399.923 157.316 399.457 157.54 399.149 157.988C398.841 158.427 398.687 159.01 398.687 159.738V163H396.587V155.468H398.687V156.462C398.957 156.154 399.293 155.893 399.695 155.678C400.105 155.463 400.521 155.351 400.941 155.342L400.955 157.316H400.549ZM409.066 161.908C408.217 162.711 407.218 163.112 406.07 163.112C404.932 163.112 403.989 162.762 403.242 162.062C402.496 161.353 402.122 160.405 402.122 159.22C402.122 158.035 402.5 157.092 403.256 156.392C404.022 155.692 404.922 155.342 405.958 155.342C406.994 155.342 407.872 155.655 408.59 156.28C409.318 156.905 409.682 157.764 409.682 158.856V159.976H404.194C404.26 160.387 404.474 160.723 404.838 160.984C405.202 161.245 405.613 161.376 406.07 161.376C406.808 161.376 407.414 161.129 407.89 160.634L409.066 161.908ZM407.554 158.478C407.508 158.03 407.34 157.685 407.05 157.442C406.761 157.199 406.406 157.078 405.986 157.078C405.576 157.078 405.198 157.204 404.852 157.456C404.507 157.708 404.306 158.049 404.25 158.478H407.554ZM417.921 161.908C417.071 162.711 416.073 163.112 414.925 163.112C413.786 163.112 412.843 162.762 412.097 162.062C411.35 161.353 410.977 160.405 410.977 159.22C410.977 158.035 411.355 157.092 412.111 156.392C412.876 155.692 413.777 155.342 414.813 155.342C415.849 155.342 416.726 155.655 417.445 156.28C418.173 156.905 418.537 157.764 418.537 158.856V159.976H413.049C413.114 160.387 413.329 160.723 413.693 160.984C414.057 161.245 414.467 161.376 414.925 161.376C415.662 161.376 416.269 161.129 416.745 160.634L417.921 161.908ZM416.409 158.478C416.362 158.03 416.194 157.685 415.905 157.442C415.615 157.199 415.261 157.078 414.841 157.078C414.43 157.078 414.052 157.204 413.707 157.456C413.361 157.708 413.161 158.049 413.105 158.478H416.409Z" fill="white"/>
<defs>
<clipPath id="clip0_1479_17287">
<rect width="130" height="57" fill="white" transform="translate(297.5 50)"/>
</clipPath>
</defs>
</svg>
